<svg width="50" height="26" viewBox="0 0 50 26" fill="none" xmlns="http://www.w3.org/2000/svg">
<path d="M2.83077 15.5547H2.55548C1.14379 15.5547 -0.000183105 14.4107 -0.000183105 12.999C-0.000183105 11.5873 1.14379 10.4434 2.55548 10.4434H2.83077C4.24246 10.4434 5.38643 11.5873 5.38643 12.999C5.38643 14.4098 4.24246 15.5547 2.83077 15.5547Z" fill="white"/>
<path d="M49.3163 11.3505L39.6376 1.67255C37.7911 -0.174733 34.632 1.13291 34.632 3.74479V9.64584C34.632 10.0865 34.2745 10.444 33.8338 10.444H24.5294C23.1177 10.444 21.9738 11.588 21.9738 12.9997C21.9738 14.4114 23.1177 15.5553 24.5294 15.5553H33.8338C34.2745 15.5553 34.632 15.9129 34.632 16.3535V22.2546C34.632 24.8673 37.7911 26.1758 39.6376 24.3285L49.3163 14.6506C50.2277 13.7383 50.2277 12.2619 49.3163 11.3505Z" fill="white"/>
<path d="M12.1132 15.5547H15.0599C16.4716 15.5547 17.6156 14.4107 17.6156 12.999C17.6156 11.5873 16.4716 10.4434 15.0599 10.4434H12.1132C10.7015 10.4434 9.5575 11.5873 9.5575 12.999C9.5575 14.4098 10.7015 15.5547 12.1132 15.5547Z" fill="white"/>
</svg>
