<svg width="60" height="30" viewBox="0 0 60 30" fill="none" xmlns="http://www.w3.org/2000/svg">
<path d="M3.37302 17.5714H3.04501C1.36301 17.5714 0 16.2084 0 14.5264C0 12.8444 1.36301 11.4814 3.04501 11.4814H3.37302C5.05502 11.4814 6.41803 12.8444 6.41803 14.5264C6.41803 16.2074 5.05502 17.5714 3.37302 17.5714Z" fill="#120487"/>
<path d="M58.7597 12.5616L47.2277 1.03055C45.0277 -1.17045 41.2637 0.387576 41.2637 3.49958V10.5306C41.2637 11.0556 40.8377 11.4816 40.3127 11.4816H29.2267C27.5447 11.4816 26.1817 12.8446 26.1817 14.5266C26.1817 16.2086 27.5447 17.5716 29.2267 17.5716H40.3127C40.8377 17.5716 41.2637 17.9976 41.2637 18.5226V25.5536C41.2637 28.6666 45.0277 30.2256 47.2277 28.0246L58.7597 16.4936C59.8457 15.4066 59.8457 13.6476 58.7597 12.5616Z" fill="#120487"/>
<path d="M14.4327 17.5714H17.9437C19.6257 17.5714 20.9887 16.2084 20.9887 14.5264C20.9887 12.8444 19.6257 11.4814 17.9437 11.4814H14.4327C12.7507 11.4814 11.3877 12.8444 11.3877 14.5264C11.3877 16.2074 12.7507 17.5714 14.4327 17.5714Z" fill="#120487"/>
</svg>
