<svg width="40" height="40" viewBox="0 0 40 40" fill="none" xmlns="http://www.w3.org/2000/svg">
<path d="M31.6667 1.6665H8.33333C3.73833 1.6665 0 5.40484 0 9.99984V29.9998C0 34.5948 3.73833 38.3332 8.33333 38.3332H31.6667C36.2617 38.3332 40 34.5948 40 29.9998V9.99984C40 5.40484 36.2617 1.6665 31.6667 1.6665ZM8.33333 4.99984H31.6667C34.4233 4.99984 36.6667 7.24317 36.6667 9.99984V13.3332H3.33333V9.99984C3.33333 7.24317 5.57667 4.99984 8.33333 4.99984ZM31.6667 34.9998H8.33333C5.57667 34.9998 3.33333 32.7565 3.33333 29.9998V16.6665H36.6667V29.9998C36.6667 32.7565 34.4233 34.9998 31.6667 34.9998ZM5 9.1665C5 7.7865 6.12 6.6665 7.5 6.6665C8.88 6.6665 10 7.7865 10 9.1665C10 10.5465 8.88 11.6665 7.5 11.6665C6.12 11.6665 5 10.5465 5 9.1665ZM11.6667 9.1665C11.6667 7.7865 12.7867 6.6665 14.1667 6.6665C15.5467 6.6665 16.6667 7.7865 16.6667 9.1665C16.6667 10.5465 15.5467 11.6665 14.1667 11.6665C12.7867 11.6665 11.6667 10.5465 11.6667 9.1665ZM17.845 26.7982C18.4967 27.4498 18.4967 28.5032 17.845 29.1548L14.5417 32.4582C13.955 33.0448 13.1933 33.3382 12.4317 33.3382C11.6967 33.3382 10.96 33.0648 10.3817 32.5165L8.44333 30.6782C7.775 30.0465 7.74667 28.9898 8.38 28.3232C9.01333 27.6548 10.0683 27.6265 10.735 28.2598L12.4267 29.8598L15.49 26.7965C16.1417 26.1448 17.195 26.1448 17.8467 26.7965L17.845 26.7982ZM31.6667 29.9998C31.6667 30.9215 30.9217 31.6665 30 31.6665H23.3333C22.4117 31.6665 21.6667 30.9215 21.6667 29.9998C21.6667 29.0782 22.4117 28.3332 23.3333 28.3332H30C30.9217 28.3332 31.6667 29.0782 31.6667 29.9998ZM17.845 18.4648C18.4967 19.1165 18.4967 20.1698 17.845 20.8215L14.5417 24.1248C13.955 24.7115 13.1933 25.0048 12.4317 25.0048C11.6967 25.0048 10.96 24.7315 10.3817 24.1832L8.44333 22.3448C7.775 21.7132 7.74667 20.6582 8.38 19.9898C9.01333 19.3198 10.0683 19.2932 10.735 19.9248L12.4267 21.5248L15.49 18.4615C16.1417 17.8098 17.195 17.8098 17.8467 18.4615L17.845 18.4648ZM31.6667 21.6665C31.6667 22.5882 30.9217 23.3332 30 23.3332H23.3333C22.4117 23.3332 21.6667 22.5882 21.6667 21.6665C21.6667 20.7448 22.4117 19.9998 23.3333 19.9998H30C30.9217 19.9998 31.6667 20.7465 31.6667 21.6665Z" fill="black"/>
</svg>
