<svg width="40" height="40" viewBox="0 0 40 40" fill="none" xmlns="http://www.w3.org/2000/svg">
<path d="M5 2.09375C3.79688 2.40625 2.90625 3.25 2.50781 4.4375C2.34375 4.91406 2.34375 4.97656 2.34375 16.9453C2.34375 28.7656 2.34375 28.9766 2.5 29.4766C2.6875 30.0781 3.16406 30.8281 3.61719 31.2188C4.07031 31.6094 4.94531 32.0078 5.54688 32.1016C5.85938 32.1562 7.77344 32.1875 10.4922 32.1875H14.9219V33.2344V34.2812L14.1094 34.3125C13.3906 34.3359 13.2734 34.3594 12.9844 34.5547C12.8047 34.6719 12.5625 34.9141 12.4453 35.0938C12.2344 35.3984 12.2266 35.4688 12.2031 36.5L12.1719 37.5781L12.4062 37.8125L12.6406 38.0469H20H27.3594L27.5938 37.8125L27.8281 37.5781L27.7969 36.5C27.7734 35.4688 27.7656 35.3984 27.5547 35.0938C27.4375 34.9141 27.1953 34.6719 27.0156 34.5547C26.7266 34.3594 26.6094 34.3359 25.8906 34.3125L25.0781 34.2812V33.2344V32.1875H29.5156C32.1172 32.1875 34.1562 32.1562 34.4531 32.1094C35.0469 32.0156 35.9219 31.6094 36.3828 31.2109C36.8359 30.8281 37.3125 30.0781 37.5 29.4766C37.6562 28.9766 37.6562 28.7656 37.6562 16.9453C37.6562 4.97656 37.6562 4.91406 37.4922 4.4375C37.3203 3.91406 36.9375 3.28125 36.5859 2.95312C36.4688 2.83594 36.1641 2.625 35.9141 2.46875C34.9922 1.92188 35.9766 1.95312 19.9453 1.96094C6.61719 1.96094 5.46875 1.96875 5 2.09375ZM35.125 3.45312C35.5938 3.70312 36.0469 4.17969 36.2812 4.67969L36.4453 5.03906L36.4688 15.7188L36.4844 26.4062H20H3.51562L3.53125 15.7188L3.55469 5.03906L3.71875 4.67969C3.96875 4.14062 4.42969 3.67969 4.96094 3.42188L5.42969 3.20312L20.0781 3.21875L34.7266 3.24219L35.125 3.45312ZM20.5781 28.6016C20.9219 28.8984 21.0156 29.2812 20.8281 29.6562C20.6875 29.9609 20.2891 30.2344 20 30.2344C19.7109 30.2344 19.3125 29.9609 19.1719 29.6562C18.9844 29.2812 19.0781 28.8984 19.4219 28.6016C19.7969 28.2656 20.2031 28.2656 20.5781 28.6016Z" fill="black"/>
<path d="M9.02388 7.78128C8.11763 8.25003 7.79732 9.38285 8.32857 10.211C9.00045 11.2422 10.5708 11.2344 11.1879 10.1875L11.3442 9.92191H13.2583H15.1645L14.4379 10.4063C12.0942 11.9766 10.4145 14.7657 10.1879 17.4532L10.1333 18.0313L9.81295 18.0703C9.60201 18.1016 9.43795 18.1875 9.32076 18.3203C9.14888 18.5078 9.14107 18.5938 9.14107 19.6407C9.14107 20.6563 9.1567 20.7813 9.30513 20.9688L9.46138 21.1719H10.6958C12.3364 21.1719 12.2661 21.2422 12.2661 19.625C12.2661 18.2735 12.227 18.1719 11.6411 18.0782C11.4692 18.0469 11.3286 18.0078 11.3286 17.9766C11.3286 17.9532 11.3833 17.6094 11.4458 17.2188C11.977 13.9297 14.3989 11.211 17.6176 10.2735C17.9926 10.1641 18.3598 10.0782 18.4379 10.0782C18.5083 10.0782 18.7583 10.2657 18.9848 10.4844L19.3911 10.8985L17.2739 15.1563C16.102 17.5 15.1489 19.461 15.1567 19.5157C15.1645 19.7578 15.3989 20.0703 15.6098 20.1172C15.7661 20.1485 16.4614 19.9844 17.9223 19.5703L20.0083 18.9766L22.0864 19.5703C23.5473 19.9844 24.227 20.1485 24.3911 20.1172C24.6098 20.0625 24.8442 19.75 24.8442 19.5C24.8442 19.4297 23.8989 17.4844 22.7348 15.1641L20.6254 10.9453L20.9067 10.8125C21.0551 10.7422 21.2973 10.5469 21.4379 10.3828L21.6958 10.0782L22.3833 10.2735C23.7426 10.6719 24.9067 11.336 25.9145 12.2891C27.4379 13.7344 28.3364 15.5235 28.6333 17.6641L28.6801 18.0235L28.3598 18.0782C27.7739 18.1719 27.7348 18.2735 27.7348 19.6328C27.7348 21.2422 27.6645 21.1719 29.3129 21.1719H30.5395L30.6958 20.9688C30.8442 20.7813 30.8598 20.6563 30.8598 19.6407C30.8598 18.5938 30.852 18.5078 30.6801 18.3203C30.5629 18.1797 30.3989 18.1016 30.1723 18.0703C29.852 18.0313 29.8442 18.0157 29.8442 17.7344C29.8442 17.3125 29.6333 16.25 29.3989 15.5157C29.1489 14.7188 28.477 13.4063 27.9536 12.6953C27.3598 11.8985 26.352 10.9375 25.5395 10.3907L24.8364 9.92191H26.7426H28.6567L28.8129 10.1875C29.5942 11.5078 31.6723 11.086 31.9223 9.54691C32.0004 9.05472 31.7817 8.42972 31.4067 8.09378C31.0004 7.72659 30.8051 7.65628 30.227 7.65628C29.5708 7.65628 29.0473 7.94534 28.7817 8.45316L28.6645 8.67191H25.1958H21.727L21.6098 8.45316C21.3442 7.93753 20.8208 7.65628 20.1411 7.65628C19.5395 7.65628 19.1333 7.85941 18.7895 8.33597L18.5551 8.66409H14.9458L11.3364 8.67191L11.2192 8.45316C11.0786 8.18753 10.8208 7.94534 10.4926 7.78128C10.1645 7.61722 9.33638 7.61722 9.02388 7.78128Z" fill="black"/>
</svg>
