<svg width="41" height="40" viewBox="0 0 41 40" fill="none" xmlns="http://www.w3.org/2000/svg">
<g clip-path="url(#clip0_329_281)">
<path d="M8.83333 23.3333C9.75333 23.3333 10.5 24.08 10.5 25V28.3333C10.5 29.2533 9.75333 30 8.83333 30C7.91333 30 7.16667 29.2533 7.16667 28.3333V25C7.16667 24.08 7.91333 23.3333 8.83333 23.3333ZM13.8333 20V28.3333C13.8333 29.2533 14.58 30 15.5 30C16.42 30 17.1667 29.2533 17.1667 28.3333V20C17.1667 19.08 16.42 18.3333 15.5 18.3333C14.58 18.3333 13.8333 19.08 13.8333 20ZM8 5C6.62 5 5.5 6.12 5.5 7.5C5.5 8.88 6.62 10 8 10C9.38 10 10.5 8.88 10.5 7.5C10.5 6.12 9.38 5 8 5ZM14.6667 5C13.2867 5 12.1667 6.12 12.1667 7.5C12.1667 8.88 13.2867 10 14.6667 10C16.0467 10 17.1667 8.88 17.1667 7.5C17.1667 6.12 16.0467 5 14.6667 5ZM40.5 8.33333V18.3333C40.5 19.2533 39.755 20 38.8333 20C37.9117 20 37.1667 19.2533 37.1667 18.3333V15H3.83333V28.3333C3.83333 31.09 6.07667 33.3333 8.83333 33.3333H17.1667C18.0867 33.3333 18.8333 34.08 18.8333 35C18.8333 35.92 18.0867 36.6667 17.1667 36.6667H8.83333C4.23833 36.6667 0.5 32.9283 0.5 28.3333V8.33333C0.5 3.73833 4.23833 0 8.83333 0H32.1667C36.7617 0 40.5 3.73833 40.5 8.33333ZM37.1667 11.6667V8.33333C37.1667 5.57667 34.9233 3.33333 32.1667 3.33333H8.83333C6.07667 3.33333 3.83333 5.57667 3.83333 8.33333V11.6667H37.1667ZM40.0117 37.155C40.6633 37.8067 40.6633 38.86 40.0117 39.5117C39.36 40.1633 38.3067 40.1633 37.655 39.5117L33.4217 35.2783C32.1033 36.1517 30.5283 36.6667 28.8333 36.6667C24.2383 36.6667 20.5 32.9283 20.5 28.3333C20.5 23.7383 24.2383 20 28.8333 20C33.4283 20 37.1667 23.7383 37.1667 28.3333C37.1667 30.0283 36.6517 31.6033 35.7783 32.9217L40.0117 37.155ZM28.8333 33.3333C31.59 33.3333 33.8333 31.09 33.8333 28.3333C33.8333 25.5767 31.59 23.3333 28.8333 23.3333C26.0767 23.3333 23.8333 25.5767 23.8333 28.3333C23.8333 31.09 26.0767 33.3333 28.8333 33.3333Z" fill="black"/>
</g>
<defs>
<clipPath id="clip0_329_281">
<rect width="40" height="40" fill="white" transform="translate(0.5)"/>
</clipPath>
</defs>
</svg>
