<svg width="60" height="61" viewBox="0 0 60 61" fill="none" xmlns="http://www.w3.org/2000/svg">
<path d="M0 30.4697C0 16.3276 0 9.25652 4.3934 4.86312C8.7868 0.469727 15.8579 0.469727 30 0.469727C44.1421 0.469727 51.2132 0.469727 55.6066 4.86312C60 9.25652 60 16.3276 60 30.4697C60 44.6119 60 51.6829 55.6066 56.0763C51.2132 60.4697 44.1421 60.4697 30 60.4697C15.8579 60.4697 8.7868 60.4697 4.3934 56.0763C0 51.6829 0 44.6119 0 30.4697Z" fill="#FF5221"/>
<path d="M18.75 17.04C17.8477 17.2744 17.1797 17.9072 16.8809 18.7979C16.7578 19.1553 16.7578 19.2021 16.7578 28.1787C16.7578 37.0439 16.7578 37.2021 16.875 37.5771C17.0156 38.0283 17.373 38.5908 17.7129 38.8838C18.0527 39.1768 18.709 39.4756 19.1602 39.5459C19.3945 39.5869 20.8301 39.6104 22.8691 39.6104H26.1914V40.3955V41.1807L25.582 41.2041C25.043 41.2217 24.9551 41.2393 24.7383 41.3857C24.6035 41.4736 24.4219 41.6553 24.334 41.79C24.1758 42.0186 24.1699 42.0713 24.1523 42.8447L24.1289 43.6533L24.3047 43.8291L24.4805 44.0049H30H35.5195L35.6953 43.8291L35.8711 43.6533L35.8477 42.8447C35.8301 42.0713 35.8242 42.0186 35.666 41.79C35.5781 41.6553 35.3965 41.4736 35.2617 41.3857C35.0449 41.2393 34.957 41.2217 34.418 41.2041L33.8086 41.1807V40.3955V39.6104H37.1367C39.0879 39.6104 40.6172 39.5869 40.8398 39.5518C41.2852 39.4814 41.9414 39.1768 42.2871 38.8779C42.627 38.5908 42.9844 38.0283 43.125 37.5771C43.2422 37.2021 43.2422 37.0439 43.2422 28.1787C43.2422 19.2021 43.2422 19.1553 43.1191 18.7979C42.9902 18.4053 42.7031 17.9307 42.4395 17.6846C42.3516 17.5967 42.123 17.4385 41.9355 17.3213C41.2441 16.9111 41.9824 16.9346 29.959 16.9404C19.9629 16.9404 19.1016 16.9463 18.75 17.04ZM41.3438 18.0596C41.6953 18.2471 42.0352 18.6045 42.2109 18.9795L42.334 19.249L42.3516 27.2588L42.3633 35.2744H30H17.6367L17.6484 27.2588L17.666 19.249L17.7891 18.9795C17.9766 18.5752 18.3223 18.2295 18.7207 18.0361L19.0723 17.8721L30.0586 17.8838L41.0449 17.9014L41.3438 18.0596ZM30.4336 36.9209C30.6914 37.1436 30.7617 37.4307 30.6211 37.7119C30.5156 37.9404 30.2168 38.1455 30 38.1455C29.7832 38.1455 29.4844 37.9404 29.3789 37.7119C29.2383 37.4307 29.3086 37.1436 29.5664 36.9209C29.8477 36.6689 30.1523 36.6689 30.4336 36.9209Z" fill="white"/>
<path d="M21.7676 21.3053C21.0879 21.6569 20.8477 22.5065 21.2461 23.1276C21.75 23.901 22.9277 23.8952 23.3906 23.11L23.5078 22.9108H24.9434H26.373L25.8281 23.2741C24.0703 24.4518 22.8105 26.5436 22.6406 28.5592L22.5996 28.9928L22.3594 29.0221C22.2012 29.0456 22.0781 29.11 21.9902 29.2096C21.8613 29.3502 21.8555 29.4147 21.8555 30.1999C21.8555 30.9616 21.8672 31.0553 21.9785 31.1959L22.0957 31.3483H23.0215C24.252 31.3483 24.1992 31.401 24.1992 30.1881C24.1992 29.1745 24.1699 29.0983 23.7305 29.028C23.6016 29.0045 23.4961 28.9752 23.4961 28.9518C23.4961 28.9342 23.5371 28.6764 23.584 28.3834C23.9824 25.9167 25.7988 23.8776 28.2129 23.1745C28.4941 23.0924 28.7695 23.028 28.8281 23.028C28.8809 23.028 29.0684 23.1686 29.2383 23.3327L29.543 23.6432L27.9551 26.8366C27.0762 28.5944 26.3613 30.0651 26.3672 30.1061C26.373 30.2877 26.5488 30.5221 26.707 30.5573C26.8242 30.5807 27.3457 30.4577 28.4414 30.1471L30.0059 29.7018L31.5645 30.1471C32.6602 30.4577 33.1699 30.5807 33.293 30.5573C33.457 30.5163 33.6328 30.2819 33.6328 30.0944C33.6328 30.0417 32.9238 28.5827 32.0508 26.8424L30.4687 23.6784L30.6797 23.5788C30.791 23.526 30.9727 23.3795 31.0781 23.2565L31.2715 23.028L31.7871 23.1745C32.8066 23.4733 33.6797 23.9713 34.4355 24.6862C35.5781 25.7702 36.252 27.112 36.4746 28.7174L36.5098 28.987L36.2695 29.028C35.8301 29.0983 35.8008 29.1745 35.8008 30.194C35.8008 31.401 35.748 31.3483 36.9844 31.3483H37.9043L38.0215 31.1959C38.1328 31.0553 38.1445 30.9616 38.1445 30.1999C38.1445 29.4147 38.1387 29.3502 38.0098 29.2096C37.9219 29.1042 37.7988 29.0456 37.6289 29.0221C37.3887 28.9928 37.3828 28.9811 37.3828 28.7702C37.3828 28.4538 37.2246 27.6569 37.0488 27.1061C36.8613 26.5084 36.3574 25.5241 35.9648 24.9909C35.5195 24.3932 34.7637 23.6725 34.1543 23.2624L33.627 22.9108H35.0566H36.4922L36.6094 23.11C37.1953 24.1002 38.7539 23.7838 38.9414 22.6295C39 22.2604 38.8359 21.7917 38.5547 21.5397C38.25 21.2643 38.1035 21.2116 37.6699 21.2116C37.1777 21.2116 36.7852 21.4284 36.5859 21.8092L36.498 21.9733H33.8965H31.2949L31.207 21.8092C31.0078 21.4225 30.6152 21.2116 30.1055 21.2116C29.6543 21.2116 29.3496 21.3639 29.0918 21.7213L28.916 21.9674H26.209L23.502 21.9733L23.4141 21.8092C23.3086 21.61 23.1152 21.4284 22.8691 21.3053C22.623 21.1823 22.002 21.1823 21.7676 21.3053Z" fill="white"/>
</svg>
