<svg width="170" height="150" viewBox="0 0 170 150" fill="none" xmlns="http://www.w3.org/2000/svg">
<path d="M60.7705 16.7259C59.976 17.6198 59.6781 24.4725 59.8767 39.2704L60.1747 60.5239L71.5959 61.0204L83.0171 61.517L83.3151 68.1711L83.613 74.9245H57.7911C27.5993 74.9245 29.8836 73.9314 29.8836 87.2396V95.7807H23.0308C13.1986 95.7807 13 96.0786 13 115.644C13 127.264 13.2979 131.633 14.3904 133.024C15.5822 134.712 17.2705 134.911 32.5651 134.911C45.476 135.01 49.8459 134.712 51.0377 133.62C52.5274 132.527 52.726 129.945 52.726 115.544C52.726 95.5821 52.8253 95.7807 42.6952 95.7807H35.8425V88.3321V80.8834H59.6781H83.5137V88.3321V95.7807H76.2637C65.5377 95.7807 65.637 95.6814 65.637 115.842C65.637 129.647 65.9349 132.527 67.226 133.62C69.3116 135.407 101.688 135.308 103.873 133.52C105.065 132.527 105.363 129.151 105.363 115.743C105.363 106.705 104.866 98.5615 104.37 97.767C103.774 96.7739 101.192 96.178 96.0274 95.9793L88.4795 95.5821V88.2328V80.8834H112.315L135.952 80.8834V88.0341L135.654 95.2841L128.205 95.7807C121.551 96.178 120.658 96.5752 119.466 98.7602C117.678 102.236 118.175 131.832 120.062 133.719C121.849 135.507 154.325 135.407 156.51 133.52C157.702 132.527 158 129.349 158 115.544C158 95.88 158 95.7807 147.373 95.7807H141.116V86.5444C141.116 80.6848 141.911 76.7945 141.116 76C140.223 75.1062 131.781 74.9245 113.606 74.9245H88.3801L88.6781 68.1711L88.976 61.517L99.4041 61.2191C105.164 61.1198 110.229 60.5239 110.726 60.0273C111.719 59.0341 111.918 18.017 110.925 16.428C109.832 14.6403 62.2603 14.9382 60.7705 16.7259ZM106.158 38.2773L105.86 56.2533H87.4863C77.3562 56.2533 68.1199 56.2533 66.9281 56.154C64.6438 56.0547 64.6438 56.0547 64.6438 38.178V20.3013H85.5H106.356L106.158 38.2773ZM47.5616 115.346L47.2637 130.044H32.863H18.4623L18.1644 116.736C18.0651 109.387 18.1644 102.733 18.363 102.038C18.7603 101.044 22.4349 100.746 33.3596 100.746H47.8596L47.5616 115.346ZM99.4041 115.644V130.541H85.5H71.5959V115.644V100.746H85.5H99.4041V115.644ZM153.034 115.644V130.541H138.733C125.127 130.541 124.432 130.442 123.935 128.455C123.24 125.873 123.24 107.003 123.935 103.428L124.432 100.746H138.733H153.034V115.644Z" fill="black"/>
</svg>
