<svg width="170" height="150" viewBox="0 0 170 150" fill="none" xmlns="http://www.w3.org/2000/svg">
<path d="M17.2728 14.9732C15.5562 15.7588 14.1014 17.1553 13.2577 18.8428L12.5012 20.3557V65.6272V110.899L13.2577 112.412C14.1014 114.099 15.5562 115.496 17.2728 116.281C18.4075 116.805 19.7749 116.834 43.0798 116.834H67.7231L67.3448 118.667C67.1412 119.656 66.8211 121.227 66.6175 122.129L66.2974 123.817H60.9149C53.9322 123.817 54.3977 123.409 54.3977 129.636C54.3977 133.913 54.4559 134.349 54.9796 134.873C55.5615 135.455 55.9397 135.455 84.6562 135.455C113.373 135.455 113.751 135.455 114.333 134.873C114.857 134.349 114.915 133.913 114.915 129.636C114.915 123.409 115.38 123.817 108.398 123.817H103.015L102.695 122.129C102.491 121.227 102.171 119.656 101.968 118.667L101.589 116.834H126.233C149.538 116.834 150.905 116.805 152.04 116.281C153.756 115.496 155.211 114.099 156.055 112.412L156.811 110.899V65.6563C156.811 22.276 156.782 20.3266 156.258 19.1919C155.473 17.4753 154.076 16.0206 152.389 15.1769L150.876 14.4204H84.6853C20.9387 14.4204 18.4075 14.4495 17.2728 14.9732ZM150.207 19.7447C150.643 20.0066 151.225 20.5885 151.487 21.0249C151.981 21.7814 152.011 24.0799 152.098 60.0119L152.156 98.2133H84.6562H17.1564V60.5938C17.1564 36.6197 17.2728 22.6251 17.4473 21.9559C17.7965 20.7631 18.7857 19.7447 19.9495 19.3665C20.415 19.221 49.4807 19.1338 85.0926 19.1628C146.017 19.221 149.45 19.2501 150.207 19.7447ZM152.127 106.156C152.011 109.706 151.72 110.52 150.207 111.51C149.45 112.004 146.046 112.033 84.6562 112.033C23.2663 112.033 19.8622 112.004 19.1057 111.51C17.5928 110.52 17.3019 109.706 17.1855 106.156L17.0982 102.868H84.6562H152.214L152.127 106.156ZM96.876 118.492C97.0797 119.423 97.3997 120.994 97.6034 121.984L97.9816 123.817H84.6562H71.3308L71.7091 121.984C71.9127 120.994 72.2328 119.423 72.4364 118.492L72.7565 116.834H84.6562H96.556L96.876 118.492ZM110.26 129.636V130.799H84.6562H59.0528V129.636V128.472H84.6562H110.26V129.636Z" fill="black"/>
<path d="M80.5829 105.778C80.2046 106.156 80.001 106.738 80.001 107.524C80.001 109.56 80.5829 109.851 84.6561 109.851C88.7294 109.851 89.3113 109.56 89.3113 107.524C89.3113 105.487 88.7294 105.196 84.6561 105.196C81.543 105.196 81.1066 105.254 80.5829 105.778Z" fill="black"/>
<path d="M105.488 38.8634C105.201 38.9941 104.691 39.3993 104.364 39.7391C104.024 40.092 98.2474 46.4962 91.5163 53.9722C83.5306 62.8336 79.0607 67.6956 78.6686 67.957C78.185 68.2707 77.9367 68.3491 77.3355 68.3361C76.9303 68.3361 76.4337 68.2446 76.2115 68.1269C75.9893 68.0093 72.6957 65.1209 68.8923 61.6966C62.6057 56.0503 61.8999 55.4491 61.2857 55.2662C58.9069 54.5734 56.8157 56.9652 57.8352 59.2133C58.0182 59.6054 60.2401 61.788 66.8012 67.9701C71.5847 72.4923 75.754 76.3218 76.0416 76.4786C76.7343 76.8707 77.9106 76.8838 78.6033 76.5309C78.8647 76.4002 79.4659 75.8774 79.9364 75.3938C82.8379 72.3485 108.939 43.2026 109.2 42.7321C109.853 41.5035 109.461 39.8829 108.324 39.0725C107.592 38.5628 106.298 38.4713 105.488 38.8634Z" fill="black"/>
</svg>
