<svg width="170" height="150" viewBox="0 0 170 150" fill="none" xmlns="http://www.w3.org/2000/svg">
<mask id="path-1-inside-1_104_608" fill="white">
<path d="M21.3992 2.30252C18.0225 3.52267 15.5254 5.79274 13.908 9.08432L13 10.9571V57.0677V103.178L13.908 105.051C15.5538 108.399 18.0509 110.641 21.5127 111.833C23.1018 112.372 23.8963 112.4 45.1213 112.4H67.0558V116.94V121.481H62.7427C58.089 121.481 57.408 121.651 56.3581 123.155C56.1311 123.495 54.5988 127.752 52.9814 132.632C49.8033 142.195 49.5479 143.472 50.5978 145.174C50.91 145.657 51.5626 146.281 52.0734 146.565C52.953 147.019 56.1027 147.047 100.965 146.962L148.92 146.877L150.906 145.912C153.517 144.635 155.758 142.394 157.035 139.783L158 137.797V74.3769V10.9571L157.035 8.97081C155.758 6.36024 153.517 4.11856 150.906 2.84166L148.92 1.87688L85.9256 1.82013C24.3219 1.76338 22.9031 1.76338 21.3992 2.30252ZM147.359 11.0139C147.898 11.3544 148.608 12.0638 148.92 12.5745C149.459 13.4826 149.487 14.0784 149.572 30.9053L149.658 48.328L149.005 48.0726C148.636 47.9591 137.938 47.8456 125.226 47.8456H102.1L100.114 48.8103C97.5029 50.0873 95.2613 52.3289 93.9843 54.9395L93.0196 56.9258L92.9344 71.8798L92.8493 86.8622H57.1243H21.3708V51.7614V16.6323L29.4579 24.7193L37.545 32.8064L34.9344 32.9483C32.0969 33.0902 31.3591 33.4023 30.4227 34.8495C29.6849 35.9278 29.7133 38.4816 30.4227 39.5882C31.6712 41.461 31.6712 41.461 41.2339 41.461C50.7965 41.461 50.7965 41.461 52.045 39.5882C52.5274 38.8221 52.5841 38.1127 52.5841 30.1107C52.5841 20.5481 52.5841 20.5481 50.7113 19.2996C49.6047 18.5902 47.0509 18.5618 45.9726 19.2996C44.5254 20.236 44.2133 20.9738 44.0714 23.8113L43.9296 26.4219L35.8425 18.3348L27.7554 10.2477L87.0607 10.3045L146.366 10.3896L147.359 11.0139ZM147.302 56.9258C147.813 57.2379 148.523 57.9473 148.863 58.4865L149.487 59.4796V97.3612C149.487 134.732 149.487 135.243 148.92 136.179C148.608 136.69 147.898 137.399 147.359 137.74L146.366 138.364H125.51H104.654L103.66 137.74C103.121 137.399 102.412 136.69 102.1 136.179C101.532 135.271 101.532 134.675 101.447 98.9219L101.39 62.601L109.477 70.688L117.565 78.7751L114.954 78.917C112.116 79.0589 111.379 79.371 110.442 80.8182C109.704 81.8965 109.733 84.4503 110.442 85.5569C111.691 87.4297 111.691 87.4297 121.253 87.4297C133.455 87.4297 132.604 88.281 132.604 76.0794C132.604 66.5168 132.604 66.5168 130.731 65.2683C129.624 64.5589 127.07 64.5305 125.992 65.2683C124.545 66.2047 124.233 66.9424 124.091 69.78L123.949 72.3906L115.862 64.3035L107.775 56.2164L127.07 56.2732C145.798 56.3583 146.394 56.3867 147.302 56.9258ZM92.8777 99.6313V103.888L58.7701 103.831C25.2016 103.746 24.6057 103.746 23.6977 103.178C22.1086 102.213 21.5978 101.05 21.4276 98.0422L21.2857 95.3749H57.0959H92.8777V99.6313ZM92.8777 116.94V121.481H84.2231H75.5685V116.94V112.4H84.2231H92.8777V116.94ZM92.8777 133.342C92.8777 135.158 92.9912 137.087 93.1331 137.598L93.4168 138.506H76.9589C67.9354 138.506 60.5294 138.421 60.5294 138.307C60.5294 138.194 61.1252 136.264 61.863 134.051L63.1967 129.993H78.0372H92.8777V133.342Z"/>
</mask>
<path d="M21.3992 2.30252C18.0225 3.52267 15.5254 5.79274 13.908 9.08432L13 10.9571V57.0677V103.178L13.908 105.051C15.5538 108.399 18.0509 110.641 21.5127 111.833C23.1018 112.372 23.8963 112.4 45.1213 112.4H67.0558V116.94V121.481H62.7427C58.089 121.481 57.408 121.651 56.3581 123.155C56.1311 123.495 54.5988 127.752 52.9814 132.632C49.8033 142.195 49.5479 143.472 50.5978 145.174C50.91 145.657 51.5626 146.281 52.0734 146.565C52.953 147.019 56.1027 147.047 100.965 146.962L148.92 146.877L150.906 145.912C153.517 144.635 155.758 142.394 157.035 139.783L158 137.797V74.3769V10.9571L157.035 8.97081C155.758 6.36024 153.517 4.11856 150.906 2.84166L148.92 1.87688L85.9256 1.82013C24.3219 1.76338 22.9031 1.76338 21.3992 2.30252ZM147.359 11.0139C147.898 11.3544 148.608 12.0638 148.92 12.5745C149.459 13.4826 149.487 14.0784 149.572 30.9053L149.658 48.328L149.005 48.0726C148.636 47.9591 137.938 47.8456 125.226 47.8456H102.1L100.114 48.8103C97.5029 50.0873 95.2613 52.3289 93.9843 54.9395L93.0196 56.9258L92.9344 71.8798L92.8493 86.8622H57.1243H21.3708V51.7614V16.6323L29.4579 24.7193L37.545 32.8064L34.9344 32.9483C32.0969 33.0902 31.3591 33.4023 30.4227 34.8495C29.6849 35.9278 29.7133 38.4816 30.4227 39.5882C31.6712 41.461 31.6712 41.461 41.2339 41.461C50.7965 41.461 50.7965 41.461 52.045 39.5882C52.5274 38.8221 52.5841 38.1127 52.5841 30.1107C52.5841 20.5481 52.5841 20.5481 50.7113 19.2996C49.6047 18.5902 47.0509 18.5618 45.9726 19.2996C44.5254 20.236 44.2133 20.9738 44.0714 23.8113L43.9296 26.4219L35.8425 18.3348L27.7554 10.2477L87.0607 10.3045L146.366 10.3896L147.359 11.0139ZM147.302 56.9258C147.813 57.2379 148.523 57.9473 148.863 58.4865L149.487 59.4796V97.3612C149.487 134.732 149.487 135.243 148.92 136.179C148.608 136.69 147.898 137.399 147.359 137.74L146.366 138.364H125.51H104.654L103.66 137.74C103.121 137.399 102.412 136.69 102.1 136.179C101.532 135.271 101.532 134.675 101.447 98.9219L101.39 62.601L109.477 70.688L117.565 78.7751L114.954 78.917C112.116 79.0589 111.379 79.371 110.442 80.8182C109.704 81.8965 109.733 84.4503 110.442 85.5569C111.691 87.4297 111.691 87.4297 121.253 87.4297C133.455 87.4297 132.604 88.281 132.604 76.0794C132.604 66.5168 132.604 66.5168 130.731 65.2683C129.624 64.5589 127.07 64.5305 125.992 65.2683C124.545 66.2047 124.233 66.9424 124.091 69.78L123.949 72.3906L115.862 64.3035L107.775 56.2164L127.07 56.2732C145.798 56.3583 146.394 56.3867 147.302 56.9258ZM92.8777 99.6313V103.888L58.7701 103.831C25.2016 103.746 24.6057 103.746 23.6977 103.178C22.1086 102.213 21.5978 101.05 21.4276 98.0422L21.2857 95.3749H57.0959H92.8777V99.6313ZM92.8777 116.94V121.481H84.2231H75.5685V116.94V112.4H84.2231H92.8777V116.94ZM92.8777 133.342C92.8777 135.158 92.9912 137.087 93.1331 137.598L93.4168 138.506H76.9589C67.9354 138.506 60.5294 138.421 60.5294 138.307C60.5294 138.194 61.1252 136.264 61.863 134.051L63.1967 129.993H78.0372H92.8777V133.342Z" fill="black" stroke="white" stroke-width="3" mask="url(#path-1-inside-1_104_608)"/>
</svg>
