<svg width="100" height="100" viewBox="0 0 100 100" fill="none" xmlns="http://www.w3.org/2000/svg">
<path d="M83.893 35.0664C82.4987 35.0664 81.1615 35.6203 80.1754 36.6062C79.1894 37.5921 78.6357 38.9293 78.6357 40.3236V64.1491C78.6357 65.5434 79.1894 66.8806 80.1754 67.8666C81.1615 68.8526 82.4987 69.4063 83.893 69.4063C85.2873 69.4063 86.6246 68.8526 87.6106 67.8666C88.5966 66.8806 89.1503 65.5434 89.1503 64.1491V40.3236C89.1503 38.9293 88.5966 37.5921 87.6106 36.6062C86.6246 35.6203 85.2873 35.0664 83.893 35.0664Z" fill="#F05D27"/>
<path d="M16.1079 35.0664C14.7136 35.0664 13.3763 35.6203 12.3904 36.6062C11.4045 37.5921 10.8506 38.9293 10.8506 40.3236V64.1491C10.8506 65.5434 11.4045 66.8806 12.3904 67.8666C13.3763 68.8526 14.7136 69.4063 16.1079 69.4063C17.5022 69.4063 18.8394 68.8526 19.8253 67.8666C20.8112 66.8806 21.3651 65.5434 21.3651 64.1491V40.3236C21.3651 38.9293 20.8112 37.5921 19.8253 36.6062C18.8394 35.6203 17.5022 35.0664 16.1079 35.0664Z" fill="#F05D27"/>
<path d="M25.168 35.0664V70.8605C25.168 71.6463 25.3227 72.4248 25.6235 73.1507C25.9242 73.8767 26.365 74.5367 26.9207 75.092C27.4764 75.648 28.1361 76.0887 28.8622 76.3896C29.5882 76.6899 30.3664 76.8448 31.1523 76.8448H34.9554V89.5406C34.9554 90.9349 35.5093 92.2721 36.4953 93.2581C37.4812 94.2441 38.8184 94.7978 40.2127 94.7978C41.607 94.7978 42.9443 94.2441 43.9303 93.2581C44.9163 92.2721 45.47 90.9349 45.47 89.5406V76.8448H54.5304V89.5406C54.5304 90.9349 55.0841 92.2721 56.0701 93.2581C57.0561 94.2441 58.3934 94.7978 59.7877 94.7978C61.182 94.7978 62.5192 94.2441 63.5052 93.2581C64.4912 92.2721 65.0449 90.9349 65.0449 89.5406V76.8448H68.8481C70.4353 76.8448 71.9571 76.2145 73.0796 75.092C74.2021 73.9701 74.8324 72.4477 74.8324 70.8605V35.0664H25.168Z" fill="black"/>
<path d="M74.1613 27.6288C72.5153 22.1064 68.8648 17.3987 63.9264 14.4297L63.0874 13.9263L62.1926 13.4789L63.1993 11.7451L66.1635 6.15225C66.2194 5.99291 66.2228 5.81965 66.1724 5.65835C66.1221 5.49711 66.0209 5.35645 65.8839 5.2574H65.4924C65.3497 5.26383 65.2099 5.30231 65.0841 5.3701C64.9582 5.43788 64.8492 5.53318 64.7653 5.6489L61.7452 10.8502L60.7944 12.584L59.8995 12.1925L58.9487 11.857C53.1529 9.84543 46.8475 9.84543 41.0516 11.857L40.1568 12.1925L39.206 12.584L38.2552 10.8502L35.2351 5.2574C35.1836 5.16562 35.1147 5.0848 35.032 5.0197C34.9494 4.95455 34.8548 4.90628 34.7535 4.87776C34.6522 4.84918 34.5463 4.84085 34.4418 4.85321C34.3373 4.86557 34.2363 4.89839 34.1445 4.94979C34.0526 5.00125 33.9719 5.07021 33.9067 5.15287C33.8416 5.23547 33.7934 5.33016 33.7648 5.43139C33.7363 5.53268 33.7279 5.63861 33.7403 5.74308C33.7526 5.84756 33.7854 5.94862 33.8369 6.0404L36.8011 11.6332L37.8078 13.367L36.9129 13.8144L36.074 14.3178C31.1119 17.2991 27.4721 22.0589 25.895 27.6288C25.4585 29.0821 25.2141 30.5863 25.168 32.103H74.8324C74.7776 30.5912 74.5522 29.0902 74.1613 27.6288ZM38.8145 24.6646C38.3721 24.6646 37.9395 24.5333 37.5716 24.2875C37.2037 24.0417 36.917 23.6924 36.7477 23.2836C36.5783 22.8748 36.534 22.425 36.6203 21.991C36.7067 21.557 36.9197 21.1584 37.2326 20.8455C37.5455 20.5327 37.9441 20.3196 38.378 20.2333C38.812 20.147 39.2619 20.1913 39.6708 20.3606C40.0796 20.5299 40.4286 20.8167 40.6747 21.1846C40.9202 21.5525 41.0516 21.985 41.0516 22.4274C41.0516 23.0208 40.8162 23.5898 40.3962 24.0094C39.9767 24.4289 39.4079 24.6646 38.8145 24.6646ZM61.1859 24.6646C60.7435 24.6646 60.3106 24.5333 59.9431 24.2875C59.5751 24.0417 59.2882 23.6924 59.1188 23.2836C58.9498 22.8748 58.9051 22.425 58.9918 21.991C59.0779 21.557 59.291 21.1584 59.6042 20.8455C59.9169 20.5327 60.3156 20.3196 60.7496 20.2333C61.1836 20.147 61.6333 20.1913 62.0421 20.3606C62.451 20.5299 62.8 20.8167 63.046 21.1846C63.2916 21.5525 63.423 21.985 63.423 22.4274C63.423 23.0208 63.1875 23.5898 62.7675 24.0094C62.3481 24.4289 61.7793 24.6646 61.1859 24.6646Z" fill="black"/>
</svg>
