<svg width="100" height="100" viewBox="0 0 100 100" fill="none" xmlns="http://www.w3.org/2000/svg">
<path fill-rule="evenodd" clip-rule="evenodd" d="M80.0211 75.6143H19.9791C18.8991 75.6143 17.8296 75.4015 16.8318 74.9882C15.834 74.5749 14.9274 73.9691 14.1637 73.2054C13.4 72.4418 12.7942 71.5351 12.3809 70.5373C11.9676 69.5395 11.7549 68.4701 11.7549 67.3901V28.903C11.7549 24.334 15.4101 20.625 19.9791 20.625H80.0211C84.5364 20.625 88.2453 24.334 88.2453 28.903V67.3901C88.2453 68.4701 88.0326 69.5395 87.6193 70.5373C87.206 71.5351 86.6002 72.4418 85.8365 73.2054C85.0728 73.9691 84.1662 74.5749 83.1684 74.9882C82.1706 75.4015 81.1011 75.6143 80.0211 75.6143ZM63.1964 30.0318C62.0139 30.0318 60.3475 30.3543 60.3475 28.9567C60.3475 27.6129 62.0139 27.8816 63.1964 27.8816C64.594 27.8816 64.6478 30.0318 63.1964 30.0318ZM70.8294 30.0318C69.6468 30.0318 67.9267 30.3543 67.9267 28.9567C67.9267 27.6129 69.6468 27.8816 70.8294 27.8816C72.2269 27.8816 72.2269 30.0318 70.8294 30.0318ZM78.4085 30.0318C77.226 30.0318 75.5596 30.3543 75.5596 28.9567C75.5596 27.6129 77.226 27.8816 78.4085 27.8816C79.8599 27.8816 79.8599 30.0318 78.4085 30.0318ZM47.8769 31.7519H21.5379C20.0328 31.7519 20.4629 29.4405 20.4629 27.2904C20.4629 27.1492 20.4907 27.0094 20.5447 26.879C20.5987 26.7485 20.6779 26.63 20.7777 26.5302C20.8776 26.4304 20.9961 26.3512 21.1265 26.2971C21.2569 26.2431 21.3967 26.2153 21.5379 26.2153H47.8769C49.3819 26.2153 48.9519 28.4729 48.9519 30.6768C48.9519 30.9619 48.8386 31.2354 48.637 31.437C48.4354 31.6386 48.162 31.7519 47.8769 31.7519ZM84.3214 36.4284H15.6788V67.3901C15.6788 69.7552 17.614 71.6903 19.9791 71.6903H80.0211C80.5858 71.6903 81.145 71.5791 81.6667 71.363C82.1885 71.1469 82.6625 70.8301 83.0618 70.4308C83.4612 70.0315 83.7779 69.5574 83.994 69.0357C84.2101 68.514 84.3214 67.9548 84.3214 67.3901V36.4284Z" fill="black"/>
<path fill-rule="evenodd" clip-rule="evenodd" d="M67.6039 95.8793H32.342C29.9612 95.8793 27.6779 94.9336 25.9945 93.2501C24.311 91.5666 23.3652 89.2834 23.3652 86.9026V77.7646H27.2354V81.151H72.7104V77.7646H76.5806V86.9026C76.5806 89.2834 75.6349 91.5666 73.9514 93.2501C72.2679 94.9336 69.9847 95.8793 67.6039 95.8793ZM23.3652 18.4751V13.0998C23.3652 8.15452 27.3967 4.12305 32.342 4.12305H67.6039C72.5492 4.12305 76.5806 8.15452 76.5806 13.0998V18.4751H72.7104V13.0998C72.7104 11.7455 72.1724 10.4466 71.2148 9.48893C70.2571 8.53127 68.9582 7.99326 67.6039 7.99326H61.0998L59.5947 12.616C58.9497 14.6586 57.6596 15.1424 56.7996 15.1424H43.2001C42.2863 15.1424 41.05 14.7124 40.4049 12.616L38.8998 7.99326H32.342C30.9876 7.99326 29.6888 8.53127 28.7311 9.48893C27.7735 10.4466 27.2354 11.7455 27.2354 13.0998V18.4751H23.3652ZM52.8756 91.2028H47.124C43.0388 91.2028 43.0388 85.0212 47.124 85.0212H52.8756C56.9071 85.0212 56.9608 91.2028 52.8756 91.2028Z" fill="black"/>
<path fill-rule="evenodd" clip-rule="evenodd" d="M30.5732 54.489L40.0875 64.0033C40.3501 64.3888 40.4689 64.8544 40.423 65.3187C40.3771 65.7829 40.1695 66.2163 39.8364 66.543C39.5033 66.8696 39.066 67.0688 38.601 67.1057C38.1359 67.1426 37.6727 67.0148 37.2923 66.7447L26.3805 55.8866C26.0128 55.5143 25.8066 55.0122 25.8066 54.489C25.8066 53.9658 26.0128 53.4637 26.3805 53.0914L37.2923 42.2871C39.1199 40.4057 41.8613 43.2009 40.0875 45.0285L30.5732 54.489ZM69.5978 54.489L60.1373 45.0285C58.3097 43.2009 61.1049 40.4057 62.9325 42.2333L73.7906 53.0914C74.1582 53.4637 74.3644 53.9658 74.3644 54.489C74.3644 55.0122 74.1582 55.5143 73.7906 55.8866L62.9325 66.7984C62.5502 67.1036 62.0689 67.2572 61.5806 67.2299C61.0923 67.2026 60.6311 66.9963 60.2853 66.6505C59.9394 66.3046 59.7331 65.8434 59.7058 65.3551C59.6785 64.8668 59.8321 64.3855 60.1373 64.0033L69.5978 54.489ZM42.6138 69.4861C42.2688 69.483 41.9306 69.3903 41.6322 69.217C41.3339 69.0436 41.0858 68.7957 40.9123 68.4975C40.7388 68.1992 40.6458 67.861 40.6426 67.516C40.6393 67.171 40.7259 66.8311 40.8938 66.5296L55.8908 40.5132C56.0186 40.288 56.1903 40.0907 56.3958 39.9331C56.6012 39.7754 56.8362 39.6606 57.0869 39.5955C57.3375 39.5303 57.5987 39.5161 57.8549 39.5537C58.1111 39.5913 58.3571 39.68 58.5785 39.8144C59.546 40.352 59.8685 41.5345 59.331 42.5021L44.2802 68.4648C44.1138 68.764 43.873 69.0153 43.5811 69.1942C43.2892 69.3731 42.956 69.4737 42.6138 69.4861Z" fill="#F05D27"/>
</svg>
