<svg width="100" height="100" viewBox="0 0 100 100" fill="none" xmlns="http://www.w3.org/2000/svg">
<path d="M60.1901 73.7766V87.3635C60.1901 91.0999 57.133 94.157 53.3966 94.157H19.4292C15.6928 94.157 12.6357 91.0999 12.6357 87.3635V12.6353C12.6357 8.89886 15.6928 5.8418 19.4292 5.8418H53.3966C57.133 5.8418 60.1901 8.89886 60.1901 12.6353V19.4288" stroke="black" stroke-width="5" stroke-miterlimit="10" stroke-linecap="round" stroke-linejoin="round"/>
<path d="M14 19L59 19" stroke="black" stroke-width="6.79348" stroke-miterlimit="10" stroke-linecap="round" stroke-linejoin="round"/>
<path d="M14 74L59 74" stroke="black" stroke-width="6.79348" stroke-miterlimit="10" stroke-linecap="round" stroke-linejoin="round"/>
<path d="M33.0166 83.9668H39.8101" stroke="black" stroke-width="6.79348" stroke-miterlimit="10" stroke-linecap="round" stroke-linejoin="round"/>
<path d="M43.2068 36.4121L33.0166 46.6023L43.2068 56.7925" stroke="#F05D27" stroke-width="6.79348" stroke-miterlimit="10" stroke-linecap="round" stroke-linejoin="round"/>
<path d="M77.1738 36.4121L87.364 46.6023L77.1738 56.7925" stroke="#F05D27" stroke-width="6.79348" stroke-miterlimit="10" stroke-linecap="round" stroke-linejoin="round"/>
<path d="M66.9834 33.0156L53.3965 60.1895" stroke="#F05D27" stroke-width="6.79348" stroke-miterlimit="10" stroke-linecap="round" stroke-linejoin="round"/>
</svg>
