<svg width="100" height="100" viewBox="0 0 100 100" fill="none" xmlns="http://www.w3.org/2000/svg">
<path d="M75.5364 52.5993C75.4686 49.118 76.3737 45.6869 78.1505 42.6926C79.9273 39.6982 82.5047 37.259 85.5929 35.6502C83.6482 32.9464 81.1087 30.7253 78.1703 29.158C75.2313 27.5908 71.9725 26.7193 68.6437 26.6106C61.4686 26.0457 53.672 30.7914 50.7906 30.7914C47.9093 30.7914 40.7906 26.8366 35.3668 26.8366C24.0674 26.8366 12.1465 35.8197 12.1465 53.7293C12.2009 59.3118 13.1744 64.8474 15.0278 70.1135C17.5137 77.3451 26.8358 95.4807 36.5533 95.1982C41.6381 95.1982 45.2539 91.5824 51.8641 91.5824C58.4742 91.5824 61.5816 95.1982 67.2878 95.1982C77.0618 95.1982 85.5364 78.5315 87.9657 71.1304C84.2872 69.6259 81.1403 67.0598 78.9268 63.7592C76.7126 60.4587 75.5324 56.5734 75.5364 52.5993ZM64.2369 19.4355C65.9923 17.4561 67.316 15.1326 68.1234 12.6132C68.9307 10.0938 69.2042 7.43375 68.9262 4.80273C63.6511 5.38121 58.7787 7.89793 55.2539 11.8649C53.4313 13.7853 52.0239 16.0607 51.12 18.5492C50.216 21.0376 49.8347 23.6857 49.9996 26.3282C52.7352 26.405 55.4494 25.8182 57.9087 24.6179C60.3686 23.4175 62.5008 21.6394 64.1239 19.4355H64.2369Z" fill="#F05D27"/>
<path d="M75.5364 52.599C75.4686 49.1176 76.3737 45.6866 78.1505 42.6922C79.9273 39.6979 82.5047 37.2587 85.5929 35.6498C83.6482 32.9461 81.1087 30.725 78.1703 29.1577C75.2313 27.5905 71.9725 26.7189 68.6437 26.6103C61.4686 26.0453 53.672 30.7911 50.7906 30.7911C47.9093 30.7911 40.7906 26.8363 35.3668 26.8363C24.0674 26.8363 12.1465 35.8193 12.1465 53.7289C12.2009 59.3114 13.1744 64.847 15.0278 70.1131C17.5137 77.3448 26.8358 95.4803 36.5533 95.1979C41.6381 95.1979 45.2539 91.582 51.8641 91.582C58.4742 91.582 61.5816 95.1979 67.2878 95.1979C77.0618 95.1979 85.5364 78.5312 87.9657 71.1301C84.2872 69.6256 81.1403 67.0594 78.9268 63.7589C76.7126 60.4583 75.5324 56.573 75.5364 52.599Z" fill="black"/>
</svg>
