<svg width="100" height="100" viewBox="0 0 100 100" fill="none" xmlns="http://www.w3.org/2000/svg">
<path fill-rule="evenodd" clip-rule="evenodd" d="M58.4838 22.1075C59.9083 21.2111 61.5511 20.7221 63.2339 20.6935C64.9167 20.6649 66.5752 21.0979 68.0293 21.9454C69.4834 22.7928 70.6776 24.0224 71.4822 25.5007C72.2868 26.9789 72.6711 28.6494 72.5934 30.3306C72.5157 32.0119 71.9788 33.6397 71.0412 35.0374C70.1037 36.4351 68.8011 37.5492 67.275 38.2589C65.7489 38.9685 64.0575 39.2466 62.3845 39.0628C60.7115 38.8791 59.1209 38.2406 57.7852 37.2166L54.315 40.9708C54.1032 41.1999 53.8091 41.3354 53.4974 41.3477C53.1857 41.3599 52.8819 41.2478 52.6528 41.0361C52.4238 40.8243 52.2882 40.5302 52.276 40.2185C52.2637 39.9068 52.3758 39.603 52.5876 39.3739L56.1115 35.5352C55.8972 35.2769 55.6998 35.005 55.5203 34.7214C54.2468 32.6502 53.8437 30.1596 54.3988 27.7924C54.9539 25.4253 56.4223 23.3735 58.4838 22.0845V22.1075ZM25.7551 3.24417H59.6354C62.3381 3.2462 64.9294 4.32127 66.8398 6.23309C68.7502 8.14491 69.8233 10.737 69.8233 13.4397V18.0462C68.7446 17.4541 67.5899 17.0124 66.3915 16.7333H66.2994V13.3399H19.0681V83.4267H66.2994V59.7573C67.3357 60.773 68.5248 61.6201 69.8233 62.2678V87.3882C69.8233 90.0909 68.7502 92.683 66.8398 94.5949C64.9294 96.5067 62.3381 97.5817 59.6354 97.5838H25.7551C23.0511 97.5838 20.4578 96.5096 18.5458 94.5976C16.6337 92.6855 15.5596 90.0923 15.5596 87.3882V13.4244C15.5586 12.0859 15.8217 10.7604 16.3339 9.52383C16.8461 8.28725 17.5973 7.16391 18.5445 6.21819C19.4916 5.27246 20.6161 4.52295 21.8534 4.01261C23.0908 3.50227 24.4167 3.24114 25.7551 3.24417ZM42.6454 86.6205C43.4748 86.6205 44.2855 86.8665 44.975 87.3275C45.6645 87.7884 46.2018 88.4436 46.5189 89.21C46.8359 89.9764 46.9185 90.8196 46.7561 91.633C46.5937 92.4463 46.1937 93.1932 45.6067 93.7791C45.0197 94.3651 44.2721 94.7637 43.4584 94.9246C42.6448 95.0855 41.8017 95.0013 41.0359 94.6829C40.2701 94.3644 39.6159 93.826 39.1562 93.1356C38.6966 92.4453 38.452 91.6341 38.4535 90.8047C38.4525 90.2543 38.5603 89.7091 38.7707 89.2005C38.9811 88.6919 39.2899 88.2299 39.6795 87.841C40.069 87.4522 40.5316 87.1442 41.0406 86.9347C41.5496 86.7253 42.095 86.6185 42.6454 86.6205ZM69.5162 42.775C71.0258 41.3746 72.947 40.4987 74.9943 40.2775C77.0415 40.0563 79.1055 40.5016 80.8794 41.5472C82.6533 42.5929 84.0425 44.183 84.8404 46.0812C85.6384 47.9795 85.8025 50.0846 85.3084 52.0836C84.8143 54.0826 83.6884 55.8688 82.0979 57.1767C80.5075 58.4846 78.5375 59.2444 76.4807 59.3432C74.4239 59.4419 72.3902 58.8744 70.6817 57.7249C68.9733 56.5754 67.6814 54.9053 66.998 52.9629L61.7544 54.1989C61.6031 54.2342 61.4464 54.2394 61.2932 54.2141C61.14 54.1888 60.9932 54.1336 60.8613 54.0516C60.7295 53.9696 60.615 53.8625 60.5245 53.7363C60.4341 53.6101 60.3693 53.4673 60.334 53.316C60.2988 53.1648 60.2936 53.0081 60.3189 52.8549C60.3441 52.7016 60.3993 52.5549 60.4813 52.423C60.5633 52.2911 60.6705 52.1767 60.7967 52.0862C60.9229 51.9957 61.0657 51.931 61.2169 51.8957L66.499 50.652C66.3713 49.1902 66.5819 47.7186 67.1144 46.3513C67.647 44.984 68.4872 43.7577 69.5699 42.7673L69.5162 42.775ZM27.2522 62.2141C27.104 62.9828 27.1596 63.7768 27.4134 64.5173C27.5294 64.8934 27.6731 65.2604 27.8434 65.6152C28.0218 65.9789 28.2245 66.3303 28.4499 66.667C28.6801 67.0042 28.9368 67.3226 29.2176 67.619C29.4786 67.8966 29.761 68.1533 30.0621 68.3867C30.7199 68.9308 31.5186 69.2769 32.3654 69.3848C33.4172 69.4769 34.9603 68.617 35.8816 68.0182L36.0889 67.88L37.1714 67.1967C37.3729 67.0789 37.6111 67.0406 37.8393 67.0892C38.0567 67.1394 38.2464 67.2714 38.3691 67.4578C38.4038 67.494 38.4278 67.5392 38.4382 67.5883L38.7913 68.2178C39.2443 69.047 39.6973 69.8608 40.1732 70.6592C40.6 71.3888 41.0638 72.096 41.5629 72.7782L41.6166 72.8549C41.6627 72.924 41.7394 73.0239 41.8239 73.1313C42.1156 73.5229 42.4074 73.8991 42.7145 74.2906C42.9637 74.6127 43.2555 74.8994 43.582 75.1428C43.6642 75.2088 43.7591 75.2572 43.8608 75.285C43.9625 75.3127 44.0688 75.3192 44.1732 75.304C44.4924 75.1943 44.7638 74.9772 44.9409 74.6898C44.9946 74.59 45.0561 74.4979 45.1175 74.3981L45.3017 74.114C45.483 73.8431 45.6471 73.561 45.7931 73.2695C45.8906 73.0606 45.9554 72.8379 45.985 72.6093L45.6165 72.5479C44.6568 72.4327 43.7125 72.3252 43.4054 70.4596V70.2293C43.4054 69.9836 43.3363 69.807 43.321 69.6919C43.3056 69.5767 43.321 69.5614 43.321 69.5383L43.0139 69.3848L42.9141 69.3387C42.6109 69.1839 42.348 68.9604 42.1463 68.6861C41.9337 68.3869 41.7775 68.0512 41.6857 67.6958C41.5869 67.3269 41.5277 66.9486 41.5091 66.5672C41.4732 66.1508 41.4732 65.7321 41.5091 65.3158C41.5302 65.1694 41.5855 65.03 41.6703 64.9089C41.7592 64.791 41.875 64.6962 42.0081 64.6325C44.2046 63.6094 46.5286 62.8864 48.9178 62.4828C50.3636 62.2636 51.8239 62.1533 53.2862 62.1527C50.3147 60.0265 47.7219 57.4156 45.6165 54.4292C43.3478 51.4287 41.5892 48.0749 40.4112 44.5024C39.6622 46.7397 38.6575 48.8831 37.4171 50.89C35.7127 53.6078 27.7052 60.2564 27.2522 62.2141ZM44.8564 50.1606C45.6951 49.7989 46.6111 49.6537 47.5205 49.7384C48.0966 49.7769 48.6593 49.9303 49.1752 50.1896C49.6912 50.4488 50.1501 50.8086 50.525 51.2479C50.8998 51.6871 51.183 52.1969 51.358 52.7472C51.5329 53.2975 51.5959 53.8772 51.5434 54.4523C51.4186 55.5561 51.074 56.6238 50.53 57.5923C51.0291 58.0683 51.5665 58.552 52.1346 59.0433C52.9085 59.7244 53.7351 60.3431 54.6067 60.8936C55.3187 61.3456 56.075 61.7238 56.8639 62.0222L57.0712 61.9761C57.1362 61.9532 57.1981 61.9222 57.2554 61.884C57.3147 61.8447 57.3688 61.7983 57.4166 61.7458C57.5456 61.4753 57.6262 61.1842 57.6546 60.8859C57.6964 60.4904 57.6964 60.0915 57.6546 59.6959C57.3773 58.0868 56.846 56.5319 56.0808 55.0895C55.062 53.0846 53.8727 51.171 52.5261 49.3699C51.2082 47.5683 49.7556 45.8693 48.1808 44.2874C46.9788 43.0476 45.6275 41.9618 44.1578 41.0553C43.7654 40.8247 43.3482 40.6392 42.9141 40.5025C42.6406 40.4075 42.3503 40.3709 42.0619 40.395H41.9314L41.8469 40.5332C41.8469 40.5332 41.8469 40.5946 41.7932 40.6407V40.7098C41.7048 41.6595 41.8066 42.6174 42.0926 43.5274C42.4732 44.9074 42.9875 46.247 43.6281 47.5273C44.081 48.4486 44.5186 49.2931 44.9563 50.0838L44.8564 50.1606ZM54.0923 63.9338C50.3477 63.821 46.6254 64.5476 43.1981 66.0605C43.1981 66.2447 43.1981 66.4367 43.1981 66.6286C43.2133 66.8465 43.2493 67.0625 43.3056 67.2735C43.3385 67.4032 43.3902 67.5273 43.4592 67.642C43.4959 67.7079 43.5487 67.7634 43.6127 67.8032L43.7202 67.8493C44.1413 67.987 44.5073 68.2561 44.7643 68.617C44.9686 69.013 45.0889 69.4469 45.1175 69.8915V69.9452V70.1755C45.2096 70.6976 45.5013 70.736 45.7931 70.7744C47.2441 70.9433 47.7585 71.6266 47.7585 72.5095C47.6581 73.44 47.3079 74.326 46.7451 75.0737L46.5685 75.3424L46.4226 75.5881V75.6265C46.2152 75.9846 45.9388 76.298 45.6093 76.5484C45.2798 76.7988 44.9039 76.9813 44.5033 77.0852C44.1671 77.1318 43.825 77.1096 43.4976 77.0198C43.1703 76.9301 42.8647 76.7747 42.5993 76.5631C41.7955 75.9027 41.0943 75.1265 40.5187 74.2599L40.4189 74.1217L40.3191 73.9912L40.1502 73.7609C39.6262 73.0485 39.1418 72.3077 38.6992 71.5421C38.2539 70.7744 37.7933 70.0066 37.3249 69.1237L37.0716 69.2926L36.7338 69.523C35.3365 70.4443 34.1081 71.2734 32.2195 71.0584C31.0349 70.9041 29.9176 70.42 28.995 69.6612C28.6174 69.3693 28.2655 69.0457 27.9432 68.6938C27.6062 68.3273 27.2958 67.9374 27.0142 67.5269C26.7445 67.1205 26.5009 66.6974 26.2849 66.2601C26.0752 65.8296 25.9006 65.3828 25.7628 64.9242C25.4262 63.9128 25.3496 62.8329 25.5402 61.7842C26.5459 57.5309 35.943 52.9705 39.298 42.2529C39.4593 41.7462 39.5974 41.2856 39.751 40.8633C39.8754 40.4785 40.0348 40.1059 40.227 39.7501C40.2983 39.6133 40.3805 39.4823 40.4727 39.3586C40.5676 39.2317 40.6815 39.1204 40.8105 39.0284C40.9415 38.9262 41.0897 38.8483 41.2481 38.7981C41.4144 38.7394 41.587 38.7008 41.7625 38.6829C42.2789 38.6299 42.8007 38.6795 43.2979 38.8288C43.8932 39.0196 44.465 39.2772 45.0023 39.5966C46.5827 40.5564 48.0394 41.7064 49.34 43.0207C51.01 44.6758 52.5501 46.4571 53.9465 48.3488C55.3734 50.2591 56.6296 52.2912 57.7007 54.4216C58.5333 56.0091 59.1061 57.7198 59.3974 59.4886C59.4777 60.0771 59.4777 60.6737 59.3974 61.2621C59.3322 61.7702 59.1678 62.2606 58.9137 62.7055C58.2074 63.9569 55.9349 63.9338 54.553 63.9185L54.0923 63.9338ZM77.7463 46.4294L79.9805 45.9227C80.1438 45.884 80.3132 45.8779 80.4789 45.9048C80.6446 45.9318 80.8033 45.9912 80.946 46.0796C81.0887 46.1681 81.2125 46.2839 81.3103 46.4203C81.4081 46.5568 81.478 46.7112 81.5159 46.8747L82.015 49.0628C82.0908 49.3936 82.0324 49.741 81.8525 50.0289C81.6726 50.3167 81.3859 50.5215 81.0553 50.5982L80.0495 50.7978C80.2774 51.3446 80.6796 51.8007 81.1935 52.0953C80.2367 52.0898 79.3125 51.7473 78.5832 51.128L78.4219 51.1664H78.2147C78.3633 51.0047 78.4742 50.812 78.5393 50.6022C78.6044 50.3924 78.622 50.1708 78.5908 49.9533L78.3836 49.0397L78.1993 48.2106L77.8922 46.8517C77.8541 46.6934 77.7947 46.541 77.7156 46.3987L77.7463 46.4294ZM71.4509 46.844L74.9134 46.0763C75.3595 45.9857 75.8233 46.0709 76.2081 46.314C76.5929 46.5572 76.869 46.9396 76.9786 47.3814L77.539 49.8535C77.575 50.1175 77.5447 50.3862 77.4509 50.6355C77.3571 50.8848 77.2027 51.1068 77.0016 51.2815C76.6414 51.6514 76.1878 51.9167 75.6888 52.0493C75.4687 52.5057 75.1757 52.9232 74.8213 53.2853C74.414 53.7067 73.9391 54.057 73.4163 54.3218C73.367 54.3532 73.3097 54.3699 73.2512 54.3699C73.1927 54.3699 73.1355 54.3532 73.0862 54.3218C73.0176 54.2724 72.9711 54.1981 72.9567 54.1148C72.9424 54.0315 72.9613 53.9459 73.0094 53.8765C73.1947 53.6304 73.3255 53.3478 73.3933 53.0473C73.43 52.8958 73.4557 52.7419 73.47 52.5867L72.7944 52.7402C72.5696 52.7924 72.3366 52.7997 72.1089 52.7615C71.8812 52.7233 71.6634 52.6404 71.4678 52.5177C71.2723 52.395 71.103 52.2348 70.9697 52.0463C70.8363 51.8579 70.7415 51.6449 70.6908 51.4197L70.069 48.9476C69.9677 48.4937 70.0496 48.0182 70.2969 47.6244C70.5441 47.2305 70.9367 46.9501 71.3895 46.844H71.4509ZM60.9098 29.6313L63.1593 27.0901C63.0987 27.0021 63.0497 26.9066 63.0134 26.806C62.8659 26.4422 62.8449 26.0393 62.954 25.6621C63.063 25.2849 63.2957 24.9553 63.6147 24.7263C63.9336 24.4973 64.3203 24.3822 64.7126 24.3995C65.1049 24.4167 65.4799 24.5654 65.7775 24.8215C66.0751 25.0777 66.2779 25.4265 66.3534 25.8118C66.4288 26.1971 66.3726 26.5966 66.1936 26.9461C66.0146 27.2956 65.7233 27.5747 65.3666 27.7387C65.0098 27.9027 64.6082 27.9419 64.2265 27.8502L61.8542 30.5219C61.8684 30.5494 61.8812 30.5775 61.8925 30.6063L61.9463 30.7522L65.2169 30.9902C65.3618 30.6815 65.5933 30.4216 65.8834 30.2422C66.1734 30.0627 66.5094 29.9715 66.8503 29.9797C67.1912 29.9878 67.5225 30.0949 67.8036 30.288C68.0847 30.481 68.3036 30.7517 68.4337 31.067C68.5224 31.2802 68.5683 31.5088 68.5686 31.7398C68.569 31.9708 68.5239 32.1995 68.4358 32.413C68.3478 32.6266 68.2185 32.8206 68.0555 32.9842C67.8924 33.1478 67.6988 33.2776 67.4855 33.3664C67.2723 33.4551 67.0437 33.5009 66.8127 33.5013C66.5817 33.5017 66.353 33.4565 66.1395 33.3685C65.9259 33.2805 65.7319 33.1512 65.5683 32.9882C65.4047 32.8251 65.2749 32.6314 65.1861 32.4182V32.3107L61.8772 32.0727C61.7258 32.3766 61.4892 32.63 61.1964 32.8018C60.9035 32.9737 60.567 33.0567 60.2278 33.0406C59.8887 33.0246 59.5615 32.9103 59.2861 32.7116C59.0108 32.5129 58.7992 32.2384 58.6771 31.9216C58.555 31.6047 58.5277 31.2592 58.5985 30.9271C58.6693 30.595 58.8352 30.2907 59.0759 30.0512C59.3166 29.8117 59.6218 29.6474 59.9542 29.5783C60.2867 29.5092 60.632 29.5383 60.9482 29.662L60.9098 29.6313Z" fill="#F05D27"/>
<path fill-rule="evenodd" clip-rule="evenodd" d="M25.7551 3.24417H59.6354C62.3381 3.2462 64.9294 4.32127 66.8398 6.23309C68.7502 8.14491 69.8233 10.737 69.8233 13.4397V18.0462C68.7446 17.4541 67.59 17.0124 66.3915 16.7333H66.2994V13.3399H19.0681V83.4267H66.2994V59.7573C67.3357 60.773 68.5248 61.6201 69.8233 62.2678V87.3882C69.8233 90.0909 68.7502 92.683 66.8398 94.5949C64.9294 96.5067 62.3381 97.5818 59.6354 97.5838H25.7551C23.0511 97.5838 20.4578 96.5096 18.5458 94.5976C16.6337 92.6855 15.5596 90.0923 15.5596 87.3882V13.4244C15.5586 12.0859 15.8217 10.7604 16.3339 9.52383C16.8461 8.28725 17.5973 7.16391 18.5445 6.21819C19.4916 5.27246 20.6161 4.52295 21.8534 4.01261C23.0908 3.50227 24.4167 3.24114 25.7551 3.24417ZM42.6454 86.6205C43.4748 86.6205 44.2855 86.8665 44.975 87.3275C45.6645 87.7884 46.2018 88.4436 46.5189 89.21C46.8359 89.9764 46.9185 90.8196 46.7561 91.633C46.5937 92.4463 46.1937 93.1932 45.6067 93.7791C45.0197 94.3651 44.2721 94.7637 43.4584 94.9246C42.6448 95.0855 41.8017 95.0013 41.0359 94.6829C40.2701 94.3644 39.6159 93.826 39.1562 93.1356C38.6966 92.4453 38.452 91.6341 38.4535 90.8047C38.4525 90.2543 38.5603 89.7091 38.7707 89.2005C38.9811 88.6919 39.2899 88.2299 39.6795 87.841C40.069 87.4522 40.5316 87.1442 41.0406 86.9347C41.5496 86.7253 42.095 86.6185 42.6454 86.6205Z" fill="black"/>
</svg>
