<svg width="100" height="100" viewBox="0 0 100 100" fill="none" xmlns="http://www.w3.org/2000/svg">
<path d="M60.1901 73.7766V87.3635C60.1901 91.0999 57.133 94.157 53.3966 94.157H19.4292C15.6928 94.157 12.6357 91.0999 12.6357 87.3635V12.6353C12.6357 8.89886 15.6928 5.8418 19.4292 5.8418H53.3966C57.133 5.8418 60.1901 8.89886 60.1901 12.6353V19.4288" stroke="black" stroke-width="5" stroke-miterlimit="10" stroke-linecap="round" stroke-linejoin="round"/>
<path d="M14 19L59 19" stroke="black" stroke-width="6.79348" stroke-miterlimit="10" stroke-linecap="round" stroke-linejoin="round"/>
<path d="M14 74L59 74" stroke="black" stroke-width="6.79348" stroke-miterlimit="10" stroke-linecap="round" stroke-linejoin="round"/>
<path d="M33.0166 83.9668H39.8101" stroke="#F05D27" stroke-width="6.79348" stroke-miterlimit="10" stroke-linecap="round" stroke-linejoin="round"/>
<mask id="path-5-outside-1_1327_2434" maskUnits="userSpaceOnUse" x="37.6006" y="24.1738" width="45" height="45" fill="black">
<rect fill="white" x="37.6006" y="24.1738" width="45" height="45"/>
<path d="M55.8206 25.3815C55.6006 25.6024 55.3406 26.2852 55.2006 26.9478C54.7206 29.3375 54.8406 29.1768 53.1206 29.9198L51.5406 30.6026L50.3806 29.7993C48.7606 28.6949 48.3206 28.5543 47.5406 28.8957C47.1806 29.0363 45.8406 30.2411 44.5606 31.5664C41.7006 34.4782 41.6806 34.5585 43.2006 36.7674C43.7606 37.5706 44.1406 38.2734 44.0406 38.3337C43.9406 38.3939 43.6206 39.0767 43.3006 39.8598C42.9006 40.884 42.6206 41.3057 42.3206 41.3659C42.0806 41.4061 41.3206 41.5466 40.6006 41.647C38.6006 41.9683 38.6006 41.9683 38.6006 46.4865C38.6006 49.8199 38.6406 50.3019 38.9606 50.7035C39.3406 51.1653 40.5006 51.4666 42.1006 51.5067L42.9006 51.5268L43.5406 53.1734L44.1806 54.8201L43.2006 56.306C41.7006 58.535 41.7006 58.5149 44.8606 61.6877C47.9806 64.8203 48.0006 64.8404 50.0406 63.4548C50.7806 62.9528 51.4606 62.5512 51.5406 62.5512C51.6006 62.5512 52.3606 62.8323 53.2006 63.1737L54.7406 63.8163L54.9606 65.4027C55.2206 67.2501 55.4406 67.712 56.1206 67.973C56.4006 68.0935 58.2006 68.1738 60.1006 68.1738C64.4406 68.1738 64.4406 68.1738 64.9406 65.5232L65.2806 63.756L66.1806 63.4548C66.6806 63.2741 67.4206 62.9729 67.8006 62.7721L68.4806 62.3905L69.8806 63.3745C72.0206 64.9006 72.3006 64.8002 75.5606 61.4869C78.3006 58.6957 78.3606 58.4547 76.8806 56.3864L75.9606 55.1012L76.4606 53.9566C76.7406 53.3341 77.0206 52.6112 77.0806 52.3702C77.1806 52.0288 77.4606 51.9083 78.4806 51.7276C79.1606 51.6071 79.8806 51.5067 80.0806 51.5067C80.2606 51.5067 80.6406 51.2858 80.9006 51.0047C81.4006 50.5228 81.4006 50.4826 81.4006 46.7275C81.4006 42.2093 81.4006 42.2093 79.4006 41.7675C78.6806 41.6069 77.9006 41.4261 77.6606 41.3659C77.4206 41.3057 77.1606 41.0647 77.1006 40.8036C77.0206 40.5627 76.7406 39.8598 76.4606 39.2373L75.9606 38.0927L76.8806 36.7272C78.3206 34.5585 78.3006 34.4782 75.2206 31.3456C72.1006 28.2129 72.0206 28.1728 69.8406 29.6788L68.4806 30.6427L67.1806 30.0604C66.4806 29.719 65.7406 29.4178 65.5606 29.3375C65.3606 29.2772 65.2006 29.0363 65.2006 28.7953C65.2006 27.7109 64.7206 25.7229 64.3806 25.3815C64.0406 25.0402 63.6406 25 60.1006 25C56.5206 25 56.1606 25.0402 55.8206 25.3815ZM61.9606 29.96C62.2406 31.7672 62.6606 32.3295 63.8206 32.5303C64.2606 32.6106 65.4406 33.0725 66.4406 33.5745C68.6006 34.6187 68.8606 34.6187 70.5806 33.454L71.7406 32.6508L72.8806 33.8155L74.0206 34.9802L73.2206 36.2453C72.2006 37.8116 72.1806 38.3939 73.0806 40.2012C73.4606 40.9442 73.9206 42.0888 74.1006 42.7113C74.4406 43.8961 75.1206 44.6792 75.8206 44.6792C76.0206 44.6792 76.6406 44.7796 77.2006 44.9001L78.2006 45.121V46.7877V48.4544L76.9406 48.6753C76.2406 48.7958 75.5406 48.8962 75.3606 48.8962C74.8606 48.8962 74.4606 49.5187 73.9006 51.2055C73.6206 52.0891 73.1606 53.1935 72.8806 53.6554C72.1806 54.8602 72.2606 55.5631 73.2406 57.0892L74.0806 58.3744L72.8006 59.5391L71.5006 60.6837L70.2006 59.8202C69.4806 59.3383 68.7006 58.9366 68.4406 58.9366C68.2006 58.9366 67.3806 59.2379 66.6406 59.6194C65.9006 59.9808 64.6806 60.4829 63.9406 60.7439C62.3406 61.266 62.1206 61.5471 61.8006 63.495L61.5606 64.9609H59.9006C58.0406 64.9609 58.1406 65.0412 57.8806 63.254C57.6406 61.5271 57.3806 61.2259 55.7406 60.7238C54.9606 60.4829 53.7006 60.0009 52.9806 59.6194C52.2606 59.2379 51.5006 58.9366 51.2606 58.9366C51.0406 58.9366 50.3006 59.2981 49.6206 59.7399C48.9406 60.1817 48.3206 60.5431 48.2406 60.5431C48.0406 60.5431 46.0006 58.4748 46.0006 58.274C46.0006 58.1736 46.3006 57.6715 46.6806 57.1494C47.7406 55.7036 47.7606 55.4024 46.8406 53.3742C46.4006 52.4104 45.8806 51.085 45.7006 50.4424C45.3406 49.1573 44.9406 48.836 43.4006 48.595C41.7206 48.354 41.8006 48.4544 41.8006 46.5869C41.8006 44.6993 41.6206 44.9001 43.7006 44.5587C44.9806 44.3579 45.3206 44.0166 45.8006 42.5306C46.0406 41.7876 46.5606 40.643 46.9406 40.0004C47.8806 38.4341 47.8606 37.8116 46.8006 36.2453L45.9606 35.0003L47.1206 33.8155L48.3006 32.6508L49.6806 33.5344C50.4406 34.0364 51.2206 34.438 51.4006 34.438C51.6006 34.438 52.5006 34.0765 53.4206 33.6548C54.3406 33.2131 55.5206 32.7512 56.0406 32.6307C57.3206 32.3094 57.7606 31.7472 58.0206 30.2009C58.1406 29.4981 58.2606 28.7953 58.3006 28.6547C58.3606 28.4941 58.9006 28.4137 60.0606 28.4137H61.7206L61.9606 29.96Z"/>
</mask>
<path d="M55.8206 25.3815C55.6006 25.6024 55.3406 26.2852 55.2006 26.9478C54.7206 29.3375 54.8406 29.1768 53.1206 29.9198L51.5406 30.6026L50.3806 29.7993C48.7606 28.6949 48.3206 28.5543 47.5406 28.8957C47.1806 29.0363 45.8406 30.2411 44.5606 31.5664C41.7006 34.4782 41.6806 34.5585 43.2006 36.7674C43.7606 37.5706 44.1406 38.2734 44.0406 38.3337C43.9406 38.3939 43.6206 39.0767 43.3006 39.8598C42.9006 40.884 42.6206 41.3057 42.3206 41.3659C42.0806 41.4061 41.3206 41.5466 40.6006 41.647C38.6006 41.9683 38.6006 41.9683 38.6006 46.4865C38.6006 49.8199 38.6406 50.3019 38.9606 50.7035C39.3406 51.1653 40.5006 51.4666 42.1006 51.5067L42.9006 51.5268L43.5406 53.1734L44.1806 54.8201L43.2006 56.306C41.7006 58.535 41.7006 58.5149 44.8606 61.6877C47.9806 64.8203 48.0006 64.8404 50.0406 63.4548C50.7806 62.9528 51.4606 62.5512 51.5406 62.5512C51.6006 62.5512 52.3606 62.8323 53.2006 63.1737L54.7406 63.8163L54.9606 65.4027C55.2206 67.2501 55.4406 67.712 56.1206 67.973C56.4006 68.0935 58.2006 68.1738 60.1006 68.1738C64.4406 68.1738 64.4406 68.1738 64.9406 65.5232L65.2806 63.756L66.1806 63.4548C66.6806 63.2741 67.4206 62.9729 67.8006 62.7721L68.4806 62.3905L69.8806 63.3745C72.0206 64.9006 72.3006 64.8002 75.5606 61.4869C78.3006 58.6957 78.3606 58.4547 76.8806 56.3864L75.9606 55.1012L76.4606 53.9566C76.7406 53.3341 77.0206 52.6112 77.0806 52.3702C77.1806 52.0288 77.4606 51.9083 78.4806 51.7276C79.1606 51.6071 79.8806 51.5067 80.0806 51.5067C80.2606 51.5067 80.6406 51.2858 80.9006 51.0047C81.4006 50.5228 81.4006 50.4826 81.4006 46.7275C81.4006 42.2093 81.4006 42.2093 79.4006 41.7675C78.6806 41.6069 77.9006 41.4261 77.6606 41.3659C77.4206 41.3057 77.1606 41.0647 77.1006 40.8036C77.0206 40.5627 76.7406 39.8598 76.4606 39.2373L75.9606 38.0927L76.8806 36.7272C78.3206 34.5585 78.3006 34.4782 75.2206 31.3456C72.1006 28.2129 72.0206 28.1728 69.8406 29.6788L68.4806 30.6427L67.1806 30.0604C66.4806 29.719 65.7406 29.4178 65.5606 29.3375C65.3606 29.2772 65.2006 29.0363 65.2006 28.7953C65.2006 27.7109 64.7206 25.7229 64.3806 25.3815C64.0406 25.0402 63.6406 25 60.1006 25C56.5206 25 56.1606 25.0402 55.8206 25.3815ZM61.9606 29.96C62.2406 31.7672 62.6606 32.3295 63.8206 32.5303C64.2606 32.6106 65.4406 33.0725 66.4406 33.5745C68.6006 34.6187 68.8606 34.6187 70.5806 33.454L71.7406 32.6508L72.8806 33.8155L74.0206 34.9802L73.2206 36.2453C72.2006 37.8116 72.1806 38.3939 73.0806 40.2012C73.4606 40.9442 73.9206 42.0888 74.1006 42.7113C74.4406 43.8961 75.1206 44.6792 75.8206 44.6792C76.0206 44.6792 76.6406 44.7796 77.2006 44.9001L78.2006 45.121V46.7877V48.4544L76.9406 48.6753C76.2406 48.7958 75.5406 48.8962 75.3606 48.8962C74.8606 48.8962 74.4606 49.5187 73.9006 51.2055C73.6206 52.0891 73.1606 53.1935 72.8806 53.6554C72.1806 54.8602 72.2606 55.5631 73.2406 57.0892L74.0806 58.3744L72.8006 59.5391L71.5006 60.6837L70.2006 59.8202C69.4806 59.3383 68.7006 58.9366 68.4406 58.9366C68.2006 58.9366 67.3806 59.2379 66.6406 59.6194C65.9006 59.9808 64.6806 60.4829 63.9406 60.7439C62.3406 61.266 62.1206 61.5471 61.8006 63.495L61.5606 64.9609H59.9006C58.0406 64.9609 58.1406 65.0412 57.8806 63.254C57.6406 61.5271 57.3806 61.2259 55.7406 60.7238C54.9606 60.4829 53.7006 60.0009 52.9806 59.6194C52.2606 59.2379 51.5006 58.9366 51.2606 58.9366C51.0406 58.9366 50.3006 59.2981 49.6206 59.7399C48.9406 60.1817 48.3206 60.5431 48.2406 60.5431C48.0406 60.5431 46.0006 58.4748 46.0006 58.274C46.0006 58.1736 46.3006 57.6715 46.6806 57.1494C47.7406 55.7036 47.7606 55.4024 46.8406 53.3742C46.4006 52.4104 45.8806 51.085 45.7006 50.4424C45.3406 49.1573 44.9406 48.836 43.4006 48.595C41.7206 48.354 41.8006 48.4544 41.8006 46.5869C41.8006 44.6993 41.6206 44.9001 43.7006 44.5587C44.9806 44.3579 45.3206 44.0166 45.8006 42.5306C46.0406 41.7876 46.5606 40.643 46.9406 40.0004C47.8806 38.4341 47.8606 37.8116 46.8006 36.2453L45.9606 35.0003L47.1206 33.8155L48.3006 32.6508L49.6806 33.5344C50.4406 34.0364 51.2206 34.438 51.4006 34.438C51.6006 34.438 52.5006 34.0765 53.4206 33.6548C54.3406 33.2131 55.5206 32.7512 56.0406 32.6307C57.3206 32.3094 57.7606 31.7472 58.0206 30.2009C58.1406 29.4981 58.2606 28.7953 58.3006 28.6547C58.3606 28.4941 58.9006 28.4137 60.0606 28.4137H61.7206L61.9606 29.96Z" fill="black"/>
<path d="M55.8206 25.3815C55.6006 25.6024 55.3406 26.2852 55.2006 26.9478C54.7206 29.3375 54.8406 29.1768 53.1206 29.9198L51.5406 30.6026L50.3806 29.7993C48.7606 28.6949 48.3206 28.5543 47.5406 28.8957C47.1806 29.0363 45.8406 30.2411 44.5606 31.5664C41.7006 34.4782 41.6806 34.5585 43.2006 36.7674C43.7606 37.5706 44.1406 38.2734 44.0406 38.3337C43.9406 38.3939 43.6206 39.0767 43.3006 39.8598C42.9006 40.884 42.6206 41.3057 42.3206 41.3659C42.0806 41.4061 41.3206 41.5466 40.6006 41.647C38.6006 41.9683 38.6006 41.9683 38.6006 46.4865C38.6006 49.8199 38.6406 50.3019 38.9606 50.7035C39.3406 51.1653 40.5006 51.4666 42.1006 51.5067L42.9006 51.5268L43.5406 53.1734L44.1806 54.8201L43.2006 56.306C41.7006 58.535 41.7006 58.5149 44.8606 61.6877C47.9806 64.8203 48.0006 64.8404 50.0406 63.4548C50.7806 62.9528 51.4606 62.5512 51.5406 62.5512C51.6006 62.5512 52.3606 62.8323 53.2006 63.1737L54.7406 63.8163L54.9606 65.4027C55.2206 67.2501 55.4406 67.712 56.1206 67.973C56.4006 68.0935 58.2006 68.1738 60.1006 68.1738C64.4406 68.1738 64.4406 68.1738 64.9406 65.5232L65.2806 63.756L66.1806 63.4548C66.6806 63.2741 67.4206 62.9729 67.8006 62.7721L68.4806 62.3905L69.8806 63.3745C72.0206 64.9006 72.3006 64.8002 75.5606 61.4869C78.3006 58.6957 78.3606 58.4547 76.8806 56.3864L75.9606 55.1012L76.4606 53.9566C76.7406 53.3341 77.0206 52.6112 77.0806 52.3702C77.1806 52.0288 77.4606 51.9083 78.4806 51.7276C79.1606 51.6071 79.8806 51.5067 80.0806 51.5067C80.2606 51.5067 80.6406 51.2858 80.9006 51.0047C81.4006 50.5228 81.4006 50.4826 81.4006 46.7275C81.4006 42.2093 81.4006 42.2093 79.4006 41.7675C78.6806 41.6069 77.9006 41.4261 77.6606 41.3659C77.4206 41.3057 77.1606 41.0647 77.1006 40.8036C77.0206 40.5627 76.7406 39.8598 76.4606 39.2373L75.9606 38.0927L76.8806 36.7272C78.3206 34.5585 78.3006 34.4782 75.2206 31.3456C72.1006 28.2129 72.0206 28.1728 69.8406 29.6788L68.4806 30.6427L67.1806 30.0604C66.4806 29.719 65.7406 29.4178 65.5606 29.3375C65.3606 29.2772 65.2006 29.0363 65.2006 28.7953C65.2006 27.7109 64.7206 25.7229 64.3806 25.3815C64.0406 25.0402 63.6406 25 60.1006 25C56.5206 25 56.1606 25.0402 55.8206 25.3815ZM61.9606 29.96C62.2406 31.7672 62.6606 32.3295 63.8206 32.5303C64.2606 32.6106 65.4406 33.0725 66.4406 33.5745C68.6006 34.6187 68.8606 34.6187 70.5806 33.454L71.7406 32.6508L72.8806 33.8155L74.0206 34.9802L73.2206 36.2453C72.2006 37.8116 72.1806 38.3939 73.0806 40.2012C73.4606 40.9442 73.9206 42.0888 74.1006 42.7113C74.4406 43.8961 75.1206 44.6792 75.8206 44.6792C76.0206 44.6792 76.6406 44.7796 77.2006 44.9001L78.2006 45.121V46.7877V48.4544L76.9406 48.6753C76.2406 48.7958 75.5406 48.8962 75.3606 48.8962C74.8606 48.8962 74.4606 49.5187 73.9006 51.2055C73.6206 52.0891 73.1606 53.1935 72.8806 53.6554C72.1806 54.8602 72.2606 55.5631 73.2406 57.0892L74.0806 58.3744L72.8006 59.5391L71.5006 60.6837L70.2006 59.8202C69.4806 59.3383 68.7006 58.9366 68.4406 58.9366C68.2006 58.9366 67.3806 59.2379 66.6406 59.6194C65.9006 59.9808 64.6806 60.4829 63.9406 60.7439C62.3406 61.266 62.1206 61.5471 61.8006 63.495L61.5606 64.9609H59.9006C58.0406 64.9609 58.1406 65.0412 57.8806 63.254C57.6406 61.5271 57.3806 61.2259 55.7406 60.7238C54.9606 60.4829 53.7006 60.0009 52.9806 59.6194C52.2606 59.2379 51.5006 58.9366 51.2606 58.9366C51.0406 58.9366 50.3006 59.2981 49.6206 59.7399C48.9406 60.1817 48.3206 60.5431 48.2406 60.5431C48.0406 60.5431 46.0006 58.4748 46.0006 58.274C46.0006 58.1736 46.3006 57.6715 46.6806 57.1494C47.7406 55.7036 47.7606 55.4024 46.8406 53.3742C46.4006 52.4104 45.8806 51.085 45.7006 50.4424C45.3406 49.1573 44.9406 48.836 43.4006 48.595C41.7206 48.354 41.8006 48.4544 41.8006 46.5869C41.8006 44.6993 41.6206 44.9001 43.7006 44.5587C44.9806 44.3579 45.3206 44.0166 45.8006 42.5306C46.0406 41.7876 46.5606 40.643 46.9406 40.0004C47.8806 38.4341 47.8606 37.8116 46.8006 36.2453L45.9606 35.0003L47.1206 33.8155L48.3006 32.6508L49.6806 33.5344C50.4406 34.0364 51.2206 34.438 51.4006 34.438C51.6006 34.438 52.5006 34.0765 53.4206 33.6548C54.3406 33.2131 55.5206 32.7512 56.0406 32.6307C57.3206 32.3094 57.7606 31.7472 58.0206 30.2009C58.1406 29.4981 58.2606 28.7953 58.3006 28.6547C58.3606 28.4941 58.9006 28.4137 60.0606 28.4137H61.7206L61.9606 29.96Z" stroke="black" mask="url(#path-5-outside-1_1327_2434)"/>
<path d="M53.1902 42.4668L49 46.674L53.1902 50.8811" stroke="#F05D27" stroke-width="2.79348" stroke-miterlimit="10" stroke-linecap="round" stroke-linejoin="round"/>
<path d="M67.1572 42.4668L71.3474 46.674L67.1572 50.8811" stroke="#F05D27" stroke-width="2.79348" stroke-miterlimit="10" stroke-linecap="round" stroke-linejoin="round"/>
<path d="M62.9668 41.0645L57.3799 52.2835" stroke="#F05D27" stroke-width="2.79348" stroke-miterlimit="10" stroke-linecap="round" stroke-linejoin="round"/>
</svg>
