<svg width="100" height="100" viewBox="0 0 100 100" fill="none" xmlns="http://www.w3.org/2000/svg">
<path d="M49.7503 59.1725C54.9389 59.1725 59.1451 54.9663 59.1451 49.7776C59.1451 44.589 54.9389 40.3828 49.7503 40.3828C44.5617 40.3828 40.3555 44.589 40.3555 49.7776C40.3555 54.9663 44.5617 59.1725 49.7503 59.1725Z" fill="#F05D27"/>
<path d="M49.8319 67.9641C75.6501 67.9641 96.5799 59.9727 96.5799 50.1148C96.5799 40.257 75.6501 32.2656 49.8319 32.2656C24.0138 32.2656 3.08398 40.257 3.08398 50.1148C3.08398 59.9727 24.0138 67.9641 49.8319 67.9641Z" stroke="black" stroke-width="4.24981"/>
<path d="M34.3752 59.0431C47.2843 81.4023 64.6699 95.5324 73.2071 90.6034C81.7442 85.6745 78.2001 63.5531 65.291 41.1939C52.3819 18.8347 34.9963 4.70467 26.4591 9.63359C17.922 14.5625 21.4661 36.6839 34.3752 59.0431Z" stroke="black" stroke-width="4.24981"/>
<path d="M34.3753 41.1904C21.4662 63.5496 17.922 85.671 26.4592 90.5999C34.9963 95.5288 52.382 81.3988 65.2911 59.0396C78.2002 36.6804 81.7443 14.559 73.2072 9.63008C64.67 4.70115 47.2844 18.8312 34.3753 41.1904Z" stroke="black" stroke-width="4.24981"/>
</svg>
