<svg width="100" height="100" viewBox="0 0 100 100" fill="none" xmlns="http://www.w3.org/2000/svg">
<path d="M43.9661 6.16308C26.0566 8.66308 11.5308 21.6803 7.11267 39.1588C5.34543 46.1631 5.38853 54.2019 7.26353 61.4217C8.06094 64.5036 10.3885 70.1501 11.5954 71.9389C11.7463 72.1545 12.5437 71.7881 14.979 70.3657C16.7463 69.3527 18.2118 68.4907 18.2549 68.4476C18.298 68.4045 17.8885 67.5639 17.3713 66.5726C12.0911 56.551 12.048 43.9864 17.242 33.62C25.6256 16.8958 45.2592 9.15877 62.7161 15.6674C64.548 16.357 67.048 17.5208 67.867 18.0812C68.1256 18.232 67.9101 18.7062 66.8325 20.5812C66.0997 21.8527 65.5178 22.9303 65.5609 22.9734C65.604 23.0165 69.4187 22.9088 74.0308 22.7364C78.6644 22.5639 82.5653 22.4131 82.7161 22.4131C82.8454 22.4131 82.9747 22.3269 82.9747 22.2191C82.9747 22.0036 75.1084 7.13291 74.8713 6.91739C74.7851 6.85274 74.6989 6.87429 74.6558 7.0036C74.5911 7.11136 73.9877 8.18895 73.298 9.39584L72.0265 11.551L69.5265 10.3226C65.6472 8.42602 61.8325 7.17602 57.2204 6.3355C54.4834 5.83981 46.9618 5.73205 43.9661 6.16308Z" fill="black"/>
<path d="M33.4055 24.287C29.5262 24.9336 26.0779 27.8646 24.7848 31.5931C22.6512 37.6922 26.1857 44.3732 32.4357 46.0327C35.1296 46.7655 38.7934 46.2267 41.0563 44.8043C44.4615 42.6922 46.3365 39.3086 46.3365 35.3646C46.3365 32.0888 45.3451 29.6319 43.2115 27.4767C40.6469 24.912 36.9184 23.7051 33.4055 24.287Z" fill="#F05D27"/>
<path d="M84.9359 29.6538C83.2117 30.6452 81.7893 31.4857 81.7677 31.5288C81.7246 31.5719 82.1126 32.4124 82.6298 33.4038C87.3065 42.4771 87.91 53.4685 84.2462 62.9297L83.5996 64.6323L72.6729 64.6969L61.7462 64.7616L60.0005 65.365C56.4014 66.5719 53.1686 69.3737 51.5307 72.6926C50.5609 74.6754 50.0005 76.7012 50.0005 78.3823V79.5245H60.8195H71.66L70.2376 80.4728C60.5177 87.003 48.2764 88.4254 37.285 84.3305C35.4531 83.6409 32.9531 82.4771 32.1341 81.9168C31.8755 81.7659 32.091 81.2918 33.1686 79.4168C33.9014 78.1452 34.4833 77.0676 34.4402 77.0245C34.3971 76.9814 30.6255 77.0892 26.0565 77.2616C21.5091 77.434 17.6083 77.5849 17.4143 77.5849C17.1988 77.5849 17.0264 77.6711 17.0264 77.7788C17.0264 77.9943 24.9143 92.8866 25.1298 93.0805C25.216 93.1452 25.3022 93.1021 25.3453 92.9943C25.41 92.865 26.0134 91.7874 26.7246 90.5805L28.0177 88.3607L29.3755 89.115C31.3798 90.2142 35.1083 91.7228 37.5652 92.434C41.9617 93.7055 45.41 94.1797 50.0436 94.1797C61.9617 94.1797 72.8238 89.6754 81.2505 81.2487C88.341 74.1797 92.6083 65.4512 93.8798 55.5374C94.3109 52.1107 94.2031 45.7961 93.6643 42.7788C93.1686 40.0849 92.3712 37.003 91.5953 34.8693C90.8195 32.7788 88.4272 27.8004 88.1902 27.8219C88.104 27.8219 86.6384 28.6624 84.9359 29.6538Z" fill="black"/>
<path d="M66.423 39.028C62.3497 39.7176 58.8798 42.8642 57.673 46.959C57.479 47.6486 57.3281 48.9202 57.3281 49.9978C57.3281 53.2305 58.4057 55.7736 60.6686 57.9719C67.1988 64.2435 78.104 60.5366 79.3755 51.6142C80.2376 45.5797 76.035 39.8685 70.1083 39.0064C68.4273 38.7693 67.9962 38.7693 66.423 39.028Z" fill="#F05D27"/>
<path d="M20.4746 57.4338V64.8691H37.1556H53.8582L53.7289 63.6191C53.2548 58.2959 50.216 53.77 45.5824 51.4855C42.5436 49.9985 42.5005 49.9985 30.8841 49.9985H20.4746V57.4338Z" fill="#F05D27"/>
</svg>
