<svg width="100" height="100" viewBox="0 0 100 100" fill="none" xmlns="http://www.w3.org/2000/svg">
<g clip-path="url(#clip0_1289_2235)">
<path d="M45.4096 0.117188C40.8979 0.742188 37.6948 1.52344 34.3745 2.79297C28.437 5.07812 23.6323 8.20312 19.0425 12.793C12.4214 19.4141 8.45652 27.0898 6.71824 36.6211C6.52293 37.7148 6.36668 39.9609 6.30808 42.5195L6.21043 46.6602L4.51121 48.3789C1.1323 51.8555 -0.117696 55.1172 0.0580849 60.0586C0.155741 63.0078 0.644022 64.7656 1.97215 67.1875C3.08543 69.1797 5.8198 71.9141 7.81199 73.0273C10.4487 74.4727 11.9331 74.8438 15.5854 74.9609L18.7495 75.0391V59.3945V43.75L15.9761 43.7695C13.9643 43.7695 12.812 43.8672 11.855 44.1211L10.5464 44.4531V42.8516C10.5464 36.4844 12.8511 28.8867 16.6011 22.832C19.5893 18.0078 24.2573 13.3398 29.0815 10.3516C42.0893 2.28516 57.9096 2.28516 70.9175 10.3516C75.7417 13.3398 80.4096 18.0078 83.3979 22.832C87.1479 28.8867 89.4526 36.4844 89.4526 42.8516V44.4531L88.144 44.1211C87.187 43.8672 86.0346 43.7695 84.0425 43.7695L81.2495 43.75V59.3945V75.0391L84.394 74.9805L87.519 74.9023L87.4604 81.6406C87.4018 88.1055 87.3823 88.418 86.9721 89.1602C86.7573 89.5898 86.3081 90.1758 85.9956 90.4688C84.8042 91.6016 84.8237 91.6016 71.9721 91.6016H60.1948L59.6089 90.5664C58.9643 89.4141 58.2026 88.6914 56.9526 88.0273C56.1909 87.6172 55.8589 87.5977 51.3276 87.5391L46.4839 87.4805L45.312 88.0078C40.4096 90.2148 40.3901 97.2852 45.312 99.4922L46.4839 100.02L51.3276 99.9609C55.605 99.9023 56.23 99.8633 56.8354 99.5312C58.0854 98.8477 59.0034 98.0078 59.6089 96.9531L60.1948 95.8984H72.2456C85.1167 95.8984 85.4292 95.8789 87.3432 94.9023C88.476 94.3164 89.9409 92.8906 90.644 91.6797C91.6792 89.8633 91.7964 88.7891 91.7964 80.625V73.2617L92.9096 72.5391C95.2534 71.0352 97.4995 68.457 98.6518 65.918C99.5893 63.8281 99.9995 61.9141 99.9995 59.4727C99.9995 54.8633 98.6909 51.6797 95.4878 48.3789L93.7885 46.6602L93.6909 42.5195C93.5737 36.9727 92.8706 33.2422 91.0737 28.4375C88.7885 22.3438 85.6245 17.4609 80.9565 12.793C74.3354 6.17188 66.7182 2.22656 57.1284 0.46875C55.4487 0.15625 46.9331 -0.0976562 45.4096 0.117188Z" fill="black"/>
<path d="M46.6006 14.7852C46.5615 14.9805 46.3271 16.3281 46.0732 17.7734L45.6631 20.4297L44.3545 20.7617C43.6514 20.957 42.2451 21.5039 41.249 21.9922L39.4521 22.8906L37.1084 21.2109C35.7998 20.293 34.6865 19.5312 34.6084 19.5312C34.5303 19.5312 33.417 20.5859 32.1475 21.8555L29.8232 24.1797L31.5225 26.5234C32.4404 27.8125 33.2021 28.9648 33.2021 29.082C33.2021 29.1797 32.8701 29.9219 32.4795 30.7031C32.0889 31.4844 31.542 32.832 31.2686 33.6914L30.7607 35.2539L27.8701 35.7227L24.999 36.1914V39.5703C24.999 41.4453 25.0576 42.9688 25.1162 42.9688C25.292 42.9688 29.8818 43.7305 30.3896 43.8477C30.7021 43.9258 30.9365 44.3555 31.4248 45.8398C31.7568 46.8945 32.3428 48.2812 32.6943 48.9062L33.3584 50.0586L31.6201 52.5195L29.8818 54.9609L32.167 57.2656C33.4365 58.5352 34.5498 59.5703 34.6475 59.5703C34.7451 59.5703 35.8584 58.8281 37.1279 57.9102L39.4326 56.2695L41.4443 57.2266C42.5576 57.7539 43.9053 58.2812 44.4326 58.418C44.9795 58.5352 45.4678 58.6914 45.5459 58.7695C45.624 58.8281 45.8584 59.9805 46.0928 61.3281C46.3076 62.6758 46.542 63.9648 46.5811 64.1992C46.6787 64.6484 46.7178 64.6484 49.999 64.6484C53.2803 64.6484 53.3193 64.6484 53.417 64.2188C53.4561 63.9648 53.6904 62.6758 53.9053 61.3281C54.1396 59.9805 54.374 58.8281 54.4521 58.7695C54.5303 58.6914 55.0381 58.5352 55.5654 58.418C56.1123 58.2812 57.4404 57.7539 58.5537 57.2266L60.5654 56.2695L62.8701 57.9102C64.1396 58.8281 65.2529 59.5703 65.3506 59.5703C65.4482 59.5703 66.5615 58.5352 67.8311 57.2656L70.1162 54.9609L68.3779 52.5195L66.6396 50.0586L67.3037 48.9062C67.6553 48.2812 68.2412 46.8945 68.5732 45.8398C69.0615 44.3555 69.2959 43.9258 69.6084 43.8477C70.1162 43.7305 74.7061 42.9688 74.8818 42.9688C74.9404 42.9688 74.999 41.4453 74.999 39.5703V36.1914L72.1279 35.7227L69.2373 35.2539L68.7295 33.6914C68.4561 32.832 67.9092 31.4844 67.5186 30.7031C67.1279 29.9219 66.7959 29.1797 66.7959 29.082C66.7959 28.9648 67.5576 27.8125 68.4756 26.5234L70.1748 24.1797L67.8506 21.8555C66.5811 20.5859 65.4678 19.5312 65.3896 19.5312C65.3115 19.5312 64.1982 20.293 62.8896 21.2109L60.5459 22.8906L58.749 21.9922C57.7529 21.5039 56.3467 20.957 55.6436 20.7617L54.335 20.4297L53.9248 17.7734C53.6709 16.3281 53.4365 14.9805 53.3975 14.7852C53.2998 14.4922 52.9678 14.4531 49.999 14.4531C47.0303 14.4531 46.6982 14.4922 46.6006 14.7852ZM52.1279 30.1953C58.749 31.8164 61.7178 39.3164 57.9873 44.9219C56.7178 46.7969 54.9209 48.1055 52.6162 48.8281C48.7686 50.0195 44.335 48.3789 42.0107 44.9219C38.3193 39.375 41.1514 32.0117 47.6553 30.2539C49.2568 29.8047 50.5068 29.8047 52.1279 30.1953Z" fill="#F05D27"/>
</g>
<defs>
<clipPath id="clip0_1289_2235">
<rect width="100" height="100" fill="white"/>
</clipPath>
</defs>
</svg>
