<svg width="100" height="100" viewBox="0 0 100 100" fill="none" xmlns="http://www.w3.org/2000/svg">
<path d="M12.5 5.23437C9.49219 6.01562 7.26562 8.12499 6.26953 11.0937C5.85938 12.2851 5.85938 12.4414 5.85938 42.3633C5.85938 71.9141 5.85938 72.4414 6.25 73.6914C6.71875 75.1953 7.91016 77.0703 9.04297 78.0469C10.1758 79.0234 12.3633 80.0195 13.8672 80.2539C14.6484 80.3906 19.4336 80.4687 26.2305 80.4687H37.3047V83.0859V85.7031L35.2734 85.7812C33.4766 85.8398 33.1836 85.8984 32.4609 86.3867C32.0117 86.6797 31.4062 87.2852 31.1133 87.7344C30.5859 88.4961 30.5664 88.6719 30.5078 91.25L30.4297 93.9453L31.0156 94.5312L31.6016 95.1172H50H68.3984L68.9844 94.5312L69.5703 93.9453L69.4922 91.25C69.4336 88.6719 69.4141 88.4961 68.8867 87.7344C68.5938 87.2852 67.9883 86.6797 67.5391 86.3867C66.8164 85.8984 66.5234 85.8398 64.7266 85.7812L62.6953 85.7031V83.0859V80.4687H73.7891C80.293 80.4687 85.3906 80.3906 86.1328 80.2734C87.6172 80.0391 89.8047 79.0234 90.957 78.0273C92.0898 77.0703 93.2812 75.1953 93.75 73.6914C94.1406 72.4414 94.1406 71.9141 94.1406 42.3633C94.1406 12.4414 94.1406 12.2851 93.7305 11.0937C93.3008 9.78515 92.3438 8.20312 91.4648 7.3828C91.1719 7.08984 90.4102 6.56249 89.7852 6.17187C87.4805 4.80468 89.9414 4.8828 49.8633 4.90234C16.543 4.90234 13.6719 4.92187 12.5 5.23437ZM87.8125 8.6328C88.9844 9.2578 90.1172 10.4492 90.7031 11.6992L91.1133 12.5976L91.1719 39.2969L91.2109 66.0156H50H8.78906L8.82812 39.2969L8.88672 12.5976L9.29688 11.6992C9.92188 10.3516 11.0742 9.19921 12.4023 8.55468L13.5742 8.0078L50.1953 8.04687L86.8164 8.10546L87.8125 8.6328ZM51.4453 71.5039C52.3047 72.2461 52.5391 73.2031 52.0703 74.1406C51.7188 74.9023 50.7227 75.5859 50 75.5859C49.2773 75.5859 48.2812 74.9023 47.9297 74.1406C47.4609 73.2031 47.6953 72.2461 48.5547 71.5039C49.4922 70.6641 50.5078 70.6641 51.4453 71.5039Z" fill="black"/>
<path d="M22.5582 19.4539C20.2926 20.6258 19.4918 23.4578 20.82 25.5282C22.4996 28.1063 26.4254 28.0868 27.9684 25.4696L28.359 24.8055H33.1442H37.9098L36.0934 26.0164C30.234 29.9422 26.0348 36.9149 25.4684 43.6336L25.3317 45.0789L24.5309 45.1766C24.0036 45.2547 23.5934 45.4696 23.3004 45.8016C22.8707 46.2703 22.8512 46.4852 22.8512 49.1024C22.8512 51.6414 22.8903 51.9539 23.2614 52.4227L23.652 52.9305H26.7379C30.8395 52.9305 30.6637 53.1063 30.6637 49.0633C30.6637 45.6844 30.5661 45.4305 29.1012 45.1961C28.6715 45.118 28.32 45.0203 28.32 44.9422C28.32 44.8836 28.4567 44.0243 28.6129 43.0477C29.9411 34.825 35.9957 28.0282 44.0426 25.6844C44.9801 25.411 45.8981 25.1961 46.0934 25.1961C46.2692 25.1961 46.8942 25.6649 47.4606 26.2118L48.4762 27.2469L43.1832 37.8914C40.2536 43.7508 37.8707 48.6532 37.8903 48.7899C37.9098 49.3953 38.4957 50.1766 39.0231 50.2938C39.4137 50.3719 41.152 49.9618 44.8043 48.9266L50.0192 47.4422L55.2145 48.9266C58.8668 49.9618 60.5661 50.3719 60.9762 50.2938C61.5231 50.1571 62.109 49.3758 62.109 48.7508C62.109 48.575 59.7457 43.7118 56.8356 37.911L51.5621 27.3641L52.2653 27.0321C52.6364 26.8563 53.2418 26.368 53.5934 25.9578L54.2379 25.1961L55.9567 25.6844C59.3551 26.6805 62.2653 28.3407 64.7848 30.7235C68.5934 34.3368 70.8395 38.8094 71.5817 44.161L71.6989 45.0594L70.8981 45.1961C69.4332 45.4305 69.3356 45.6844 69.3356 49.0828C69.3356 53.1063 69.1598 52.9305 73.2809 52.9305H76.3473L76.7379 52.4227C77.109 51.9539 77.1481 51.6414 77.1481 49.1024C77.1481 46.4852 77.1286 46.2703 76.6989 45.8016C76.4059 45.45 75.9957 45.2547 75.4293 45.1766C74.6286 45.0789 74.609 45.0399 74.609 44.3368C74.609 43.2821 74.0817 40.6258 73.4957 38.7899C72.8707 36.7977 71.1911 33.5164 69.8825 31.7391C68.3981 29.7469 65.8786 27.3446 63.8473 25.9774L62.0895 24.8055H66.8551H71.6403L72.0309 25.4696C73.984 28.7703 79.1793 27.7157 79.8043 23.868C79.9996 22.6375 79.4528 21.075 78.5153 20.2352C77.4996 19.3172 77.0114 19.1414 75.5661 19.1414C73.9254 19.1414 72.6168 19.8641 71.9528 21.1336L71.6598 21.6805H62.9879H54.3161L54.0231 21.1336C53.359 19.8446 52.0504 19.1414 50.3512 19.1414C48.8473 19.1414 47.8317 19.6493 46.9723 20.8407L46.3864 21.661H37.3629L28.3395 21.6805L28.0465 21.1336C27.695 20.4696 27.0504 19.8641 26.2301 19.4539C25.4098 19.0438 23.3395 19.0438 22.5582 19.4539Z" fill="#F05D27"/>
</svg>
