<svg width="100" height="100" viewBox="0 0 100 100" fill="none" xmlns="http://www.w3.org/2000/svg">
<path d="M67.367 83.911C66.8488 83.5957 66.3973 83.1731 66.0385 82.6608C65.8727 82.4246 65.7327 82.1748 65.6167 81.9167H6.73492V23.8795H86.6585V61.7757C88.3648 61.9298 89.7964 63.0505 90.3975 64.585C90.9297 64.2933 91.5229 64.113 92.1463 64.058C92.5681 64.0213 92.9869 64.0475 93.3932 64.1278V9.42118C93.3932 6.32639 90.8759 3.80859 87.7813 3.80859H5.61235C2.51779 3.80859 0 6.32639 0 9.42118V83.0395C0 86.1343 2.51779 88.6518 5.61235 88.6518H66.8555C66.3776 87.684 66.2642 86.5915 66.5455 85.5404C66.7076 84.9357 66.9881 84.3842 67.367 83.911ZM80.4954 13.2332C80.4954 12.0888 81.4231 11.1608 82.5676 11.1608H84.6399C85.7846 11.1608 86.7121 12.0885 86.7121 13.2332V15.582C86.7121 16.7264 85.7843 17.6542 84.6399 17.6542H82.5676C81.4229 17.6542 80.4954 16.7264 80.4954 15.582V13.2332ZM70.8593 13.2332C70.8593 12.0888 71.787 11.1608 72.9315 11.1608H75.004C76.1487 11.1608 77.0762 12.0885 77.0762 13.2332V15.582C77.0762 16.7264 76.1485 17.6542 75.004 17.6542H72.9315C71.787 17.6542 70.8593 16.7264 70.8593 15.582V13.2332ZM61.2229 13.2332C61.2229 12.0888 62.1509 11.1608 63.2952 11.1608H65.3674C66.5121 11.1608 67.4399 12.0885 67.4399 13.2332V15.582C67.4399 16.7264 66.5121 17.6542 65.3674 17.6542H63.2952C62.1509 17.6542 61.2229 16.7264 61.2229 15.582V13.2332Z" fill="black"/>
<path d="M99.9868 79.9581L99.3641 76.4266C99.2801 75.951 98.8269 75.6333 98.3509 75.7172L95.2103 76.2706C94.8334 75.3859 94.3519 74.5572 93.7803 73.7988L95.8316 71.3536C95.9807 71.1764 96.0533 70.9466 96.0333 70.7154C96.0129 70.4842 95.9014 70.2708 95.7238 70.1215L92.9771 67.8163C92.7995 67.6673 92.5692 67.5949 92.3382 67.6151C92.107 67.6354 91.8936 67.7466 91.7445 67.9242L89.6952 70.3675C88.8538 69.9388 87.9539 69.6083 87.0111 69.3902V66.2011C87.0111 65.7181 86.6194 65.3262 86.1365 65.3262H82.5502C82.0675 65.3262 81.6755 65.7181 81.6755 66.2011V69.3902C80.7323 69.6081 79.8333 69.9388 78.9915 70.3675L76.9416 67.9245C76.6311 67.5544 76.0796 67.5063 75.7093 67.8166L72.9624 70.1215C72.7848 70.2708 72.6735 70.4842 72.6531 70.7154C72.6331 70.9466 72.7055 71.1767 72.8545 71.3543L74.9061 73.799C74.3355 74.5572 73.853 75.3864 73.4761 76.2708L70.3355 75.7172C69.8607 75.6336 69.4066 75.951 69.3223 76.4266L68.6998 79.9581C68.6596 80.1865 68.7117 80.4213 68.8443 80.6115C68.9779 80.8018 69.1801 80.9311 69.4087 80.9714L72.5516 81.5253C72.6028 82.499 72.7724 83.4411 73.0453 84.3381L70.2829 85.9324C70.0819 86.0479 69.9355 86.2394 69.8752 86.4632C69.8152 86.6873 69.8469 86.9259 69.9626 87.1269L71.7555 90.2324C71.871 90.4334 72.0625 90.5798 72.2863 90.6399C72.3609 90.6599 72.4368 90.6696 72.5128 90.6696C72.665 90.6696 72.8157 90.6301 72.95 90.5525L75.7145 88.9562C76.3646 89.6528 77.0986 90.27 77.9006 90.792L76.809 93.7909C76.7299 94.009 76.7402 94.2495 76.8383 94.4598C76.9364 94.67 77.1138 94.8327 77.3317 94.9117L80.7008 96.1379C80.7975 96.1731 80.8989 96.1912 81.0002 96.1912C81.1264 96.1912 81.2533 96.1639 81.3702 96.1091C81.5805 96.0112 81.7427 95.8336 81.822 95.6154L82.9133 92.6166C83.3813 92.6733 83.8575 92.7026 84.3407 92.7026C84.8239 92.7026 85.3001 92.6728 85.7681 92.6166L86.8597 95.6154C86.9387 95.8336 87.1016 96.0112 87.3114 96.1091C87.4281 96.1636 87.5546 96.1912 87.6815 96.1912C87.7825 96.1912 87.8839 96.1736 87.9806 96.1379L91.3502 94.9117C91.5676 94.8327 91.7452 94.6696 91.8431 94.4598C91.9412 94.2495 91.9517 94.009 91.8724 93.7909L90.7808 90.7925C91.5821 90.2705 92.3161 89.6528 92.9669 88.9567L95.7314 90.5529C95.8654 90.6301 96.0164 90.6701 96.1686 90.6701C96.2443 90.6701 96.321 90.6599 96.3951 90.6403C96.6191 90.5803 96.8101 90.4334 96.9259 90.2329L98.7188 87.1269C98.8345 86.9264 98.8662 86.6873 98.8062 86.4632C98.7459 86.2398 98.5995 86.0484 98.3985 85.9324L95.6366 84.3386C95.9095 83.4413 96.0786 82.4992 96.1298 81.5257L99.2727 80.9716C99.5013 80.9314 99.7042 80.8021 99.8371 80.6118C99.9749 80.4213 100.027 80.1865 99.9868 79.9581ZM84.3436 85.57C81.6872 85.57 79.5332 83.4161 79.5332 80.7594C79.5332 78.1028 81.6874 75.9491 84.3436 75.9491C87.0002 75.9491 89.1541 78.1028 89.1541 80.7594C89.1541 83.4161 87.0002 85.57 84.3436 85.57Z" fill="#F05D27"/>
<path d="M39.2202 56.0492C39.2202 54.9176 38.557 53.8782 37.5304 53.4014L28.1348 49.0359L37.5306 44.67C38.557 44.1928 39.2202 43.1535 39.2202 42.0224V41.9464C39.2202 40.9439 38.7156 40.0235 37.8712 39.4856C37.4039 39.1872 36.8598 39.0293 36.298 39.0293C35.8746 39.0293 35.4496 39.1224 35.0693 39.2991L20.0482 46.2843C19.0221 46.7615 18.3594 47.8007 18.3594 48.9316V49.1405C18.3594 50.27 19.0219 51.3085 20.0485 51.7881L35.0709 58.774C35.4593 58.9538 35.873 59.045 36.3002 59.045C36.8569 59.045 37.3994 58.8868 37.8712 58.5868C38.7161 58.0467 39.2204 57.127 39.2204 56.1257L39.2202 56.0492Z" fill="#F05D27"/>
<path d="M54.0405 31.9127C53.4925 31.1625 52.6112 30.7148 51.6827 30.7148H51.6079C50.333 30.7148 49.2152 31.5305 48.8268 32.7428L38.9299 63.4078C38.6482 64.2932 38.8068 65.2684 39.354 66.0183C39.902 66.7679 40.7833 67.2158 41.7118 67.2158H41.7868C43.0613 67.2158 44.1784 66.4 44.5663 65.1879L54.462 34.5252C54.7463 33.6406 54.5887 32.664 54.0405 31.9127Z" fill="#F05D27"/>
<path d="M73.3463 46.2858L58.325 39.3006C57.9459 39.1244 57.5215 39.0312 57.0981 39.0312C56.5366 39.0312 55.9922 39.1887 55.5253 39.4866C54.6794 40.0255 54.1748 40.9456 54.1748 41.9482V42.0241C54.1748 43.1543 54.8375 44.1938 55.8648 44.6729L65.2602 49.0379L55.8646 53.4031C54.838 53.8799 54.1748 54.9193 54.1748 56.051V56.1274C54.1748 57.1287 54.6794 58.0482 55.5248 58.5887C55.9949 58.8883 56.5378 59.0467 57.0953 59.0467C57.522 59.0467 57.9352 58.9555 58.3262 58.775L73.3482 51.7891C74.3738 51.3106 75.0361 50.2719 75.0361 49.1424V48.9336C75.0354 47.8025 74.3726 46.7632 73.3463 46.2858Z" fill="#F05D27"/>
</svg>
