<svg width="60" height="60" viewBox="0 0 60 60" fill="none" xmlns="http://www.w3.org/2000/svg">
<path d="M0 30C0 15.8579 0 8.7868 4.3934 4.3934C8.7868 0 15.8579 0 30 0C44.1421 0 51.2132 0 55.6066 4.3934C60 8.7868 60 15.8579 60 30C60 44.1421 60 51.2132 55.6066 55.6066C51.2132 60 44.1421 60 30 60C15.8579 60 8.7868 60 4.3934 55.6066C0 51.2132 0 44.1421 0 30Z" fill="#00AEEF"/>
<path d="M18.75 16.5703C17.8477 16.8047 17.1797 17.4375 16.8809 18.3281C16.7578 18.6855 16.7578 18.7324 16.7578 27.709C16.7578 36.5742 16.7578 36.7324 16.875 37.1074C17.0156 37.5586 17.373 38.1211 17.7129 38.4141C18.0527 38.707 18.709 39.0059 19.1602 39.0762C19.3945 39.1172 20.8301 39.1406 22.8691 39.1406H26.1914V39.9258V40.7109L25.582 40.7344C25.043 40.752 24.9551 40.7695 24.7383 40.916C24.6035 41.0039 24.4219 41.1855 24.334 41.3203C24.1758 41.5488 24.1699 41.6016 24.1523 42.375L24.1289 43.1836L24.3047 43.3594L24.4805 43.5352H30H35.5195L35.6953 43.3594L35.8711 43.1836L35.8477 42.375C35.8301 41.6016 35.8242 41.5488 35.666 41.3203C35.5781 41.1855 35.3965 41.0039 35.2617 40.916C35.0449 40.7695 34.957 40.752 34.418 40.7344L33.8086 40.7109V39.9258V39.1406H37.1367C39.0879 39.1406 40.6172 39.1172 40.8398 39.082C41.2852 39.0117 41.9414 38.707 42.2871 38.4082C42.627 38.1211 42.9844 37.5586 43.125 37.1074C43.2422 36.7324 43.2422 36.5742 43.2422 27.709C43.2422 18.7324 43.2422 18.6855 43.1191 18.3281C42.9902 17.9355 42.7031 17.4609 42.4395 17.2148C42.3516 17.127 42.123 16.9688 41.9355 16.8516C41.2441 16.4414 41.9824 16.4648 29.959 16.4707C19.9629 16.4707 19.1016 16.4766 18.75 16.5703ZM41.3438 17.5898C41.6953 17.7773 42.0352 18.1348 42.2109 18.5098L42.334 18.7793L42.3516 26.7891L42.3633 34.8047H30H17.6367L17.6484 26.7891L17.666 18.7793L17.7891 18.5098C17.9766 18.1055 18.3223 17.7598 18.7207 17.5664L19.0723 17.4023L30.0586 17.4141L41.0449 17.4316L41.3438 17.5898ZM30.4336 36.4512C30.6914 36.6738 30.7617 36.9609 30.6211 37.2422C30.5156 37.4707 30.2168 37.6758 30 37.6758C29.7832 37.6758 29.4844 37.4707 29.3789 37.2422C29.2383 36.9609 29.3086 36.6738 29.5664 36.4512C29.8477 36.1992 30.1523 36.1992 30.4336 36.4512Z" fill="white"/>
<path d="M21.7677 20.8356C21.088 21.1872 20.8477 22.0368 21.2462 22.6579C21.7501 23.4313 22.9278 23.4254 23.3907 22.6403L23.5079 22.4411H24.9434H26.3731L25.8282 22.8043C24.0704 23.9821 22.8106 26.0739 22.6407 28.0895L22.5997 28.5231L22.3595 28.5524C22.2013 28.5758 22.0782 28.6403 21.9903 28.7399C21.8614 28.8805 21.8556 28.945 21.8556 29.7301C21.8556 30.4918 21.8673 30.5856 21.9786 30.7262L22.0958 30.8786H23.0216C24.252 30.8786 24.1993 30.9313 24.1993 29.7184C24.1993 28.7047 24.17 28.6286 23.7306 28.5583C23.6017 28.5348 23.4962 28.5055 23.4962 28.4821C23.4962 28.4645 23.5372 28.2067 23.5841 27.9137C23.9825 25.4469 25.7989 23.4079 28.213 22.7047C28.4942 22.6227 28.7696 22.5583 28.8282 22.5583C28.8809 22.5583 29.0684 22.6989 29.2384 22.8629L29.5431 23.1735L27.9552 26.3668C27.0763 28.1247 26.3614 29.5954 26.3673 29.6364C26.3731 29.818 26.5489 30.0524 26.7071 30.0875C26.8243 30.111 27.3458 29.9879 28.4415 29.6774L30.0059 29.2321L31.5645 29.6774C32.6602 29.9879 33.17 30.111 33.2931 30.0875C33.4571 30.0465 33.6329 29.8122 33.6329 29.6247C33.6329 29.5719 32.9239 28.1129 32.0509 26.3727L30.4688 23.2086L30.6798 23.109C30.7911 23.0563 30.9727 22.9098 31.0782 22.7868L31.2716 22.5583L31.7872 22.7047C32.8067 23.0036 33.6798 23.5016 34.4356 24.2165C35.5782 25.3004 36.252 26.6422 36.4747 28.2477L36.5099 28.5172L36.2696 28.5583C35.8302 28.6286 35.8009 28.7047 35.8009 29.7243C35.8009 30.9313 35.7481 30.8786 36.9845 30.8786H37.9044L38.0216 30.7262C38.1329 30.5856 38.1446 30.4918 38.1446 29.7301C38.1446 28.945 38.1388 28.8805 38.0099 28.7399C37.922 28.6344 37.7989 28.5758 37.629 28.5524C37.3888 28.5231 37.3829 28.5114 37.3829 28.3004C37.3829 27.984 37.2247 27.1872 37.0489 26.6364C36.8614 26.0387 36.3575 25.0543 35.9649 24.5211C35.5196 23.9235 34.7638 23.2028 34.1544 22.7926L33.627 22.4411H35.0567H36.4923L36.6095 22.6403C37.1954 23.6305 38.754 23.3141 38.9415 22.1598C39.0001 21.7907 38.836 21.3219 38.5548 21.07C38.2501 20.7946 38.1036 20.7418 37.67 20.7418C37.1778 20.7418 36.7852 20.9586 36.586 21.3395L36.4981 21.5036H33.8966H31.295L31.2071 21.3395C31.0079 20.9528 30.6153 20.7418 30.1056 20.7418C29.6544 20.7418 29.3497 20.8942 29.0919 21.2516L28.9161 21.4977H26.2091L23.502 21.5036L23.4142 21.3395C23.3087 21.1403 23.1153 20.9586 22.8692 20.8356C22.6231 20.7125 22.002 20.7125 21.7677 20.8356Z" fill="white"/>
</svg>
