<svg id="clutch-co-vector-logo" xmlns="http://www.w3.org/2000/svg" width="86.771" height="24.643" viewBox="0 0 86.771 24.643">
  <path id="Path_2418" data-name="Path 2418" d="M177,235.9h3.991v24.643H177Z" transform="translate(-154.44 -235.9)"/>
  <path id="Path_2419" data-name="Path 2419" d="M235.933,299.951a3.87,3.87,0,0,1-4.165,4.165c-2.43,0-2.777-2.256-2.777-3.471V291.1H225v9.371a7.328,7.328,0,0,0,2.082,5.553,6.282,6.282,0,0,0,4.686,1.735,6.06,6.06,0,0,0,4.165-1.388v1.388h3.992V291.1h-3.992Z" transform="translate(-195.498 -283.117)"/>
  <path id="Path_2420" data-name="Path 2420" d="M341.142,249.1H337.15v6.074H334.2v3.818h2.95v12.842h3.991V258.992h2.95v-3.818h-2.95Z" transform="translate(-288.906 -247.191)"/>
  <path id="Path_2421" data-name="Path 2421" d="M419.2,300.674a5.479,5.479,0,0,1-3.3,1.215,4.6,4.6,0,0,1-4.686-4.859,4.464,4.464,0,0,1,4.686-4.686,4.581,4.581,0,0,1,3.3,1.215l.521.521,2.777-2.6-.694-.521a8.9,8.9,0,0,0-5.9-2.256,8.5,8.5,0,0,0,0,17.007,8.9,8.9,0,0,0,5.9-2.256l.694-.521-2.777-2.777Z" transform="translate(-351.52 -281.064)"/>
  <path id="Path_2422" data-name="Path 2422" d="M537.148,245.271a5.508,5.508,0,0,0-4.339-1.735,5.219,5.219,0,0,0-3.818,1.388V235.9H525v24.643h3.992v-9.2c0-3.818,2.6-4.165,3.644-4.165,2.43,0,2.256,2.256,2.256,3.471v9.718h3.991v-9.545C538.883,248.569,538.363,246.486,537.148,245.271Z" transform="translate(-452.112 -235.9)"/>
  <ellipse id="Ellipse_48" data-name="Ellipse 48" cx="2.777" cy="2.777" rx="2.777" ry="2.777" transform="translate(61.434 13.363)" fill="#ef4335"/>
  <path id="Path_2423" data-name="Path 2423" d="M38.007,259.576a8.138,8.138,0,0,1-5.727,2.256c-4.339,0-7.462-3.471-7.462-8.157s3.124-8.156,7.636-8.156a8.166,8.166,0,0,1,5.727,2.43l.521.521,2.6-2.6-.521-.521a11.687,11.687,0,0,0-8.33-3.471C25.859,241.7,21,246.908,21,253.676s4.859,11.974,11.28,11.974a11.4,11.4,0,0,0,8.33-3.471l.521-.521-2.6-2.6Z" transform="translate(-21 -241.007)"/>
</svg>
