<svg xmlns="http://www.w3.org/2000/svg" width="32.269" height="24.978" viewBox="0 0 32.269 24.978">
  <path id="Icon_awesome-quote-right" data-name="Icon awesome-quote-right" d="M29.244,2.25H21.176a2.868,2.868,0,0,0-3.025,2.676v7.136a2.868,2.868,0,0,0,3.025,2.676h5.042v3.568a3.826,3.826,0,0,1-4.034,3.568h-.5a1.43,1.43,0,0,0-1.513,1.338v2.676a1.43,1.43,0,0,0,1.513,1.338h.5c5.571,0,10.084-3.992,10.084-8.921V4.926A2.868,2.868,0,0,0,29.244,2.25Zm-18.151,0H3.025A2.868,2.868,0,0,0,0,4.926v7.136a2.868,2.868,0,0,0,3.025,2.676H8.067v3.568a3.826,3.826,0,0,1-4.034,3.568h-.5a1.43,1.43,0,0,0-1.513,1.338v2.676a1.43,1.43,0,0,0,1.513,1.338h.5c5.571,0,10.084-3.992,10.084-8.921V4.926A2.868,2.868,0,0,0,11.092,2.25Z" transform="translate(0 -2.25)" fill="#fff"/>
</svg>
