<svg id="r_clutch" xmlns="http://www.w3.org/2000/svg" width="155.963" height="23.932" viewBox="0 0 155.963 23.932">
  <path id="Path_2474" data-name="Path 2474" d="M8.7,3.633h2.968V.3h2.209V-1.982H11.672V-12.82H7.829L.558-.785V.3H8.7ZM3.826-1.982,8.75-10.5v8.514ZM17.678,3.794A1.793,1.793,0,0,0,19.519,2,1.829,1.829,0,0,0,15.86,2,1.788,1.788,0,0,0,17.678,3.794Zm9.757.069c3.774,0,6.167-1.887,6.167-4.924a3.828,3.828,0,0,0-3.175-3.981A3.667,3.667,0,0,0,33.1-8.632c0-2.439-2-4.418-5.431-4.418-3.521,0-5.661,2.186-5.822,5.039h2.715a2.876,2.876,0,0,1,3.06-2.715A2.256,2.256,0,0,1,30.173-8.4c0,1.542-.851,2.416-2.738,2.416H26.261V-3.8h1.266c2,0,2.968.9,2.968,2.692,0,1.634-.989,2.669-3.129,2.669a3.031,3.031,0,0,1-3.337-3.014H21.245C21.383,1.7,23.523,3.863,27.435,3.863Z" transform="translate(36.841 18.164)"/>
  <path id="Icon_awesome-star" data-name="Icon awesome-star" d="M12.6.832,9.55,7.019l-6.828,1a1.5,1.5,0,0,0-.827,2.552l4.94,4.814-1.168,6.8a1.5,1.5,0,0,0,2.169,1.575l6.108-3.211,6.108,3.211a1.5,1.5,0,0,0,2.169-1.575l-1.168-6.8,4.94-4.814a1.5,1.5,0,0,0-.827-2.552l-6.828-1L15.285.832a1.5,1.5,0,0,0-2.683,0Z" transform="translate(-1.441 0.001)" fill="#f05d27"/>
  <g id="clutch-co-vector-logo" transform="translate(85.637 3.835)">
    <path id="Path_2418" data-name="Path 2418" d="M177,235.9h3.235v19.973H177Z" transform="translate(-158.715 -235.9)" fill="#17313b"/>
    <path id="Path_2419" data-name="Path 2419" d="M233.861,298.273a3.137,3.137,0,0,1-3.376,3.376c-1.969,0-2.25-1.828-2.25-2.813V291.1H225v7.6a5.939,5.939,0,0,0,1.688,4.5,5.091,5.091,0,0,0,3.8,1.407,4.911,4.911,0,0,0,3.376-1.125V304.6H237.1V291.1h-3.235Z" transform="translate(-201.089 -284.63)" fill="#17313b"/>
    <path id="Path_2420" data-name="Path 2420" d="M339.826,249.1h-3.235v4.923H334.2v3.094h2.391v10.408h3.235V257.117h2.391v-3.094h-2.391Z" transform="translate(-297.49 -247.553)" fill="#17313b"/>
    <path id="Path_2421" data-name="Path 2421" d="M416.964,298.405a4.44,4.44,0,0,1-2.672.985,3.732,3.732,0,0,1-3.8-3.938,3.618,3.618,0,0,1,3.8-3.8,3.713,3.713,0,0,1,2.672.985l.422.422,2.25-2.11-.563-.422a7.212,7.212,0,0,0-4.782-1.828,6.892,6.892,0,0,0,0,13.784,7.211,7.211,0,0,0,4.782-1.829l.563-.422-2.25-2.25Z" transform="translate(-362.11 -282.511)" fill="#17313b"/>
    <path id="Path_2422" data-name="Path 2422" d="M534.846,243.5a4.464,4.464,0,0,0-3.516-1.406,4.23,4.23,0,0,0-3.094,1.125V235.9H525v19.973h3.235v-7.455c0-3.094,2.11-3.376,2.954-3.376,1.969,0,1.828,1.829,1.828,2.813v7.877h3.235V248A6.406,6.406,0,0,0,534.846,243.5Z" transform="translate(-465.926 -235.9)" fill="#17313b"/>
    <ellipse id="Ellipse_48" data-name="Ellipse 48" cx="2.25" cy="2.25" rx="2.25" ry="2.25" transform="translate(49.791 10.83)" fill="#ef4335"/>
    <path id="Path_2423" data-name="Path 2423" d="M34.784,256.221a6.6,6.6,0,0,1-4.642,1.828c-3.516,0-6.048-2.813-6.048-6.611s2.532-6.611,6.189-6.611a6.618,6.618,0,0,1,4.642,1.969l.422.422,2.11-2.11-.422-.422a9.472,9.472,0,0,0-6.751-2.813c-5.345-.141-9.283,4.079-9.283,9.564s3.938,9.7,9.142,9.7a9.237,9.237,0,0,0,6.751-2.813l.422-.422-2.11-2.11Z" transform="translate(-21 -241.171)" fill="#17313b"/>
  </g>
</svg>
