<svg id="r_goodfirms" xmlns="http://www.w3.org/2000/svg" width="233.111" height="24.255" viewBox="0 0 233.111 24.255">
  <path id="Path_2476" data-name="Path 2476" d="M6.516,3.863c3.544,0,6.052-2.186,6.052-5.661,0-3.452-2.094-5.523-5.062-5.523A4.548,4.548,0,0,0,3.962-5.94L3.985-10.4h7.64V-12.82H1.637L1.5-3.662H3.064A4.175,4.175,0,0,1,6.493-5.088c1.818,0,2.968,1.266,2.968,3.245,0,2.025-1.082,3.337-2.968,3.337C4.376,1.493,3.754.434,3.5-1.084H.648C.832,1.746,2.65,3.863,6.516,3.863Zm9.711-.069A1.793,1.793,0,0,0,18.067,2a1.829,1.829,0,0,0-3.659,0A1.788,1.788,0,0,0,16.226,3.794Zm10.332-2.37c-2.462,0-3.889-1.887-3.889-5.615v-.828c0-3.659,1.358-5.638,3.843-5.638,2.462,0,3.8,2.117,3.8,5.615v.805C30.309-.509,29.089,1.424,26.558,1.424Zm-.069,2.439c4.3,0,6.88-3.152,6.88-8.1v-.828c0-4.947-2.715-7.985-6.88-7.985-4.142,0-6.9,3.06-6.9,8.054v.828C19.586.78,22.3,3.863,26.489,3.863Z" transform="translate(36.867 18.164)"/>
  <path id="Icon_awesome-star" data-name="Icon awesome-star" d="M12.6.832,9.55,7.019l-6.828,1a1.5,1.5,0,0,0-.827,2.552l4.94,4.814-1.168,6.8a1.5,1.5,0,0,0,2.169,1.575l6.108-3.211,6.108,3.211a1.5,1.5,0,0,0,2.169-1.575l-1.168-6.8,4.94-4.814a1.5,1.5,0,0,0-.827-2.552l-6.828-1L15.285.832a1.5,1.5,0,0,0-2.683,0Z" transform="translate(-1.441 0.001)" fill="#f05d27"/>
  <g id="goodfirms-white-logo-_11_" data-name="goodfirms-white-logo-(11)" transform="translate(87.549 2.557)">
    <path id="Shape" d="M8.92,7.63s-1.2-.12-1.2.954v4.768h7.956v1.431a.684.684,0,0,1-.723.715H7.715v6.2h8.679s5.255-.811,5.3-6.2V7.63ZM21.456,0H5.786C.12,1.335,0,5.985,0,5.985V21.7H6.028V7.392a1.469,1.469,0,0,1,1.2-1.43H21.457V0ZM42.144,17.2c-.413.276-.719.478-.935.608a16.731,16.731,0,0,1-2.193,1.142,7.1,7.1,0,0,1-2.661.608,9.589,9.589,0,0,1-6.778-2.5,8.21,8.21,0,0,1-2.713-6.315,9.163,9.163,0,0,1,2.445-6.372,7.714,7.714,0,0,1,5.95-2.688,10.006,10.006,0,0,1,3.091.517,8.553,8.553,0,0,1,3.433,1.969L40.22,5.895a6.035,6.035,0,0,0-2.535-1.418,8.83,8.83,0,0,0-2.5-.331A5.177,5.177,0,0,0,31.07,6.116a7.175,7.175,0,0,0-1.653,4.732A5.946,5.946,0,0,0,31.3,15.36a6.691,6.691,0,0,0,4.8,1.8,4.9,4.9,0,0,0,2.481-.754c.7-.534,1.061-.792,1.079-.811V11.824H34.414l.754-2.357h6.975ZM58,12.6a6.55,6.55,0,0,1-1.941,4.732,6.592,6.592,0,0,1-9.438.037,6.4,6.4,0,0,1-1.978-4.751A6.816,6.816,0,0,1,46.53,7.828,6.036,6.036,0,0,1,51.149,5.8,6.626,6.626,0,0,1,58,12.6Zm-2.463.037A4.32,4.32,0,0,0,54.3,9.5a4.071,4.071,0,0,0-3.074-1.289,3.821,3.821,0,0,0-2.93,1.327,4.36,4.36,0,0,0-1.2,3.038,4.266,4.266,0,0,0,1.222,3.057,4.033,4.033,0,0,0,3.038,1.288,3.953,3.953,0,0,0,2.931-1.271,4.134,4.134,0,0,0,1.258-3.019Zm18.1-.037A6.55,6.55,0,0,1,71.7,17.329a6.592,6.592,0,0,1-9.438.037,6.4,6.4,0,0,1-1.978-4.751,6.816,6.816,0,0,1,1.888-4.788A6.038,6.038,0,0,1,66.788,5.8,6.626,6.626,0,0,1,73.638,12.6Zm-2.463.037A4.32,4.32,0,0,0,69.935,9.5a4.071,4.071,0,0,0-3.074-1.289,3.821,3.821,0,0,0-2.93,1.327,4.36,4.36,0,0,0-1.2,3.038,4.263,4.263,0,0,0,1.223,3.057,4.03,4.03,0,0,0,3.038,1.288,3.952,3.952,0,0,0,2.93-1.271,4.134,4.134,0,0,0,1.258-3.019Zm16.935,6.334-2.265.35V17.127l-.486.552a5.947,5.947,0,0,1-1.438,1,5.811,5.811,0,0,1-2.462.534,5.924,5.924,0,0,1-4.495-1.953A6.579,6.579,0,0,1,75.131,12.6a6.89,6.89,0,0,1,1.815-4.788,5.754,5.754,0,0,1,4.44-1.989,6.371,6.371,0,0,1,2.624.5,4.454,4.454,0,0,1,1.348.94c.126.165.252.349.378.515V2.027l2.407-.35Zm-2.121-6.206A4.432,4.432,0,0,0,84.676,9.5a4.06,4.06,0,0,0-3-1.344A3.909,3.909,0,0,0,78.636,9.43a4.325,4.325,0,0,0-1.1,2.964,4.7,4.7,0,0,0,1.132,3.24,3.674,3.674,0,0,0,2.877,1.271A4.47,4.47,0,0,0,84.6,15.728a3.832,3.832,0,0,0,1.385-2.965Zm14.83-8.34H94.077V9.007h5.23v2.357h-5.23v7.587l-2.624.386V2.046H100.3Zm5.411-1.345-1.618,2.044-1.546-2.044L104.7,1.052Zm-.486,15.891-2.408.332V6.5l2.408-.368V18.969ZM116.619,6.005l-1.132,2.614a3.177,3.177,0,0,0-.449-.036,4.6,4.6,0,0,0-.7.055,2.759,2.759,0,0,0-.754.258,2.94,2.94,0,0,0-1.312,1.418,5.734,5.734,0,0,0-.63,2.634v6l-2.407.386V6.5L111.46,6.1v2.67c.287-.461.593-.921.88-1.4a3.564,3.564,0,0,1,1.438-1.032,11.315,11.315,0,0,1,2.84-.331Zm17.939,12.963-2.408.35V10.535a2.458,2.458,0,0,0-.539-1.768,2.147,2.147,0,0,0-1.6-.553,2.122,2.122,0,0,0-1.923,1.05,2.935,2.935,0,0,0-.449,1.51V18.95l-2.408.442v-8.8a2.67,2.67,0,0,0-.522-1.767,1.808,1.808,0,0,0-1.438-.609h-.234A1.914,1.914,0,0,0,121.2,9.283a4.29,4.29,0,0,0-.431,2.044V18.95l-2.5.442V6.5l2.246-.386V7.754a5.076,5.076,0,0,1,.738-.921,3.185,3.185,0,0,1,2.246-.9,3.953,3.953,0,0,1,2.139.461,3.965,3.965,0,0,1,1.2,1.51,3.949,3.949,0,0,1,3.542-1.97,3.873,3.873,0,0,1,3.289,1.4,5.535,5.535,0,0,1,.881,3.407Zm11-3.885a3.773,3.773,0,0,1-1.24,2.91,4.39,4.39,0,0,1-3.129,1.142,5.053,5.053,0,0,1-2.571-.663,4.807,4.807,0,0,1-1.726-1.528l1.69-1.51a3.327,3.327,0,0,0,.341.441,3.064,3.064,0,0,0,2.265.976,2.062,2.062,0,0,0,1.438-.478,1.654,1.654,0,0,0,.522-1.327q0-.966-1.24-1.326-2.455-.745-2.643-.829a4.574,4.574,0,0,1-1.637-1.252A3.607,3.607,0,0,1,137.06,9.5a3.587,3.587,0,0,1,1.222-2.762,4.145,4.145,0,0,1,2.893-1.087,4.894,4.894,0,0,1,2.356.571A4.019,4.019,0,0,1,145.077,7.5l-1.438,1.564a5.279,5.279,0,0,0-.7-.589,2.912,2.912,0,0,0-1.653-.608,2.16,2.16,0,0,0-1.241.331,1.418,1.418,0,0,0-.576,1.216,1.252,1.252,0,0,0,.558,1.142,7.741,7.741,0,0,0,2.085.662,4.913,4.913,0,0,1,2.5,1.327A3.372,3.372,0,0,1,145.562,15.083Z" transform="translate(0)" fill="#3a7af3"/>
  </g>
</svg>
