<svg xmlns="http://www.w3.org/2000/svg" width="25.141" height="25.142" viewBox="0 0 25.141 25.142">
  <g id="telephone" transform="translate(-0.006)">
    <g id="Group_6" data-name="Group 6" transform="translate(0.006)">
      <path id="Path_1" data-name="Path 1" d="M19.12,60.355a1.762,1.762,0,0,0-2.663,0c-.623.617-1.245,1.235-1.857,1.863a.367.367,0,0,1-.513.094c-.4-.22-.832-.4-1.219-.638a19.314,19.314,0,0,1-4.656-4.238,11.031,11.031,0,0,1-1.669-2.673.383.383,0,0,1,.094-.492c.623-.6,1.229-1.219,1.842-1.836a1.768,1.768,0,0,0-.005-2.726c-.487-.492-.973-.973-1.46-1.465-.5-.5-1-1.01-1.507-1.507a1.773,1.773,0,0,0-2.663.005c-.628.617-1.229,1.25-1.868,1.857a3.032,3.032,0,0,0-.952,2.046,8.667,8.667,0,0,0,.67,3.73,22.667,22.667,0,0,0,4.023,6.7,24.9,24.9,0,0,0,8.245,6.451,11.925,11.925,0,0,0,4.567,1.329A3.347,3.347,0,0,0,20.4,67.764c.534-.6,1.135-1.141,1.7-1.711a1.78,1.78,0,0,0,.01-2.71Q20.622,61.844,19.12,60.355Z" transform="translate(-0.006 -43.724)" fill="#fff"/>
      <path id="Path_2" data-name="Path 2" d="M243.525,103.44l1.931-.33a8.666,8.666,0,0,0-7.33-7.11l-.272,1.941a6.7,6.7,0,0,1,5.671,5.5Z" transform="translate(-225.41 -90.977)" fill="#fff"/>
      <path id="Path_3" data-name="Path 3" d="M251.188,4.07A14.235,14.235,0,0,0,243.026,0l-.272,1.941a12.421,12.421,0,0,1,10.511,10.186l1.931-.33A14.339,14.339,0,0,0,251.188,4.07Z" transform="translate(-230.054)" fill="#fff"/>
    </g>
  </g>
</svg>
