<svg width="60" height="60" viewBox="0 0 60 60" fill="none" xmlns="http://www.w3.org/2000/svg">
<rect width="60" height="60" rx="30" fill="#FA0428"/>
<g clip-path="url(#clip0_764_792)">
<path d="M44.1745 26.85L39.7983 19.35C39.2463 18.4081 38.458 17.6266 37.5114 17.0829C36.5647 16.5392 35.4925 16.2521 34.4008 16.25H25.562C24.4702 16.2524 23.3979 16.5396 22.4511 17.0833C21.5043 17.627 20.7157 18.4083 20.1633 19.35L15.787 26.85C15.2306 27.8063 14.9375 28.893 14.9375 29.9994C14.9375 31.1058 15.2306 32.1924 15.787 33.1488L20.1633 40.6487C20.7152 41.5906 21.5035 42.3721 22.4502 42.9158C23.3969 43.4595 24.4691 43.7466 25.5608 43.7488H34.3995C35.4913 43.7464 36.5636 43.4591 37.5104 42.9155C38.4573 42.3718 39.2458 41.5905 39.7983 40.6487L44.1733 33.1488C44.7297 32.1924 45.0228 31.1058 45.0228 29.9994C45.0228 28.893 44.7309 27.8063 44.1745 26.85ZM34.632 32.865C34.7481 32.9811 34.8401 33.1188 34.903 33.2705C34.9658 33.4221 34.9981 33.5846 34.9981 33.7487C34.9981 33.9129 34.9658 34.0754 34.903 34.227C34.8401 34.3787 34.7481 34.5164 34.632 34.6325C34.516 34.7486 34.3782 34.8406 34.2266 34.9034C34.0749 34.9662 33.9124 34.9986 33.7483 34.9986C33.5841 34.9986 33.4216 34.9662 33.27 34.9034C33.1184 34.8406 32.9806 34.7486 32.8645 34.6325L29.9983 31.7663L27.132 34.6325C27.0162 34.749 26.8785 34.8414 26.7268 34.9045C26.5752 34.9676 26.4125 35 26.2483 35C26.084 35 25.9214 34.9676 25.7697 34.9045C25.618 34.8414 25.4803 34.749 25.3645 34.6325C25.2483 34.5165 25.1562 34.3788 25.0933 34.2271C25.0304 34.0755 24.998 33.9129 24.998 33.7487C24.998 33.5846 25.0304 33.422 25.0933 33.2704C25.1562 33.1187 25.2483 32.981 25.3645 32.865L28.2308 29.9987L25.3645 27.1325C25.2485 27.0164 25.1564 26.8787 25.0936 26.727C25.0308 26.5754 24.9985 26.4129 24.9985 26.2487C24.9985 26.0846 25.0308 25.9221 25.0936 25.7705C25.1564 25.6188 25.2485 25.4811 25.3645 25.365C25.4806 25.2489 25.6184 25.1569 25.77 25.0941C25.9216 25.0313 26.0841 24.9989 26.2483 24.9989C26.4124 24.9989 26.5749 25.0313 26.7266 25.0941C26.8782 25.1569 27.016 25.2489 27.132 25.365L29.9983 28.2312L32.8645 25.365C32.9806 25.2489 33.1184 25.1569 33.27 25.0941C33.4216 25.0313 33.5841 24.9989 33.7483 24.9989C33.9124 24.9989 34.0749 25.0313 34.2266 25.0941C34.3782 25.1569 34.516 25.2489 34.632 25.365C34.7481 25.4811 34.8401 25.6188 34.903 25.7705C34.9658 25.9221 34.9981 26.0846 34.9981 26.2487C34.9981 26.4129 34.9658 26.5754 34.903 26.727C34.8401 26.8787 34.7481 27.0164 34.632 27.1325L31.7658 29.9987L34.632 32.865Z" fill="white"/>
</g>
<defs>
<clipPath id="clip0_764_792">
<rect width="30" height="30" fill="white" transform="translate(15 15)"/>
</clipPath>
</defs>
</svg>
