<svg width="60" height="60" viewBox="0 0 60 60" fill="none" xmlns="http://www.w3.org/2000/svg">
<rect width="60" height="60" rx="30" fill="#028541"/>
<g clip-path="url(#clip0_764_812)">
<path d="M42.4023 17.3049C41.8301 17.3049 41.2927 17.4876 40.8552 17.8121C40.4177 17.4876 39.8802 17.3049 39.308 17.3049C37.8756 17.3049 36.7103 18.4702 36.7103 19.9026C36.7103 21.3796 37.6235 22.5473 38.1678 23.1119C38.8351 23.804 39.8915 24.5435 40.8552 24.5435C41.6648 24.5435 42.6719 23.9882 43.5492 23.0581C44.4712 22.0805 45.0001 20.9304 45.0001 19.9026C45 18.4702 43.8347 17.3049 42.4023 17.3049ZM37.9631 27.7011H37.9629L32.7582 27.7038C33.6632 25.8997 34.4948 22.7329 33.5004 20.8948C33.028 20.0216 32.1943 19.5601 31.0896 19.5601C29.9578 19.5601 29.0371 20.4964 29.0371 21.6474C29.0371 22.8666 28.5589 23.7869 27.4381 24.7247L24.7054 27.0112C24.1042 27.5143 23.5657 28.0879 23.1016 28.7197H21.4653V41.4817H23.0397L23.9287 41.9C24.7482 42.2857 25.6602 42.4911 26.5655 42.4942L35.486 42.5338C36.6955 42.5338 37.6794 41.5499 37.6794 40.3404C37.6799 39.8405 37.5088 39.3556 37.1948 38.9667C38.1739 38.7471 38.9077 37.8708 38.9077 36.8263C38.9084 36.257 38.6874 35.7097 38.2914 35.3006C39.0036 34.9378 39.4926 34.1973 39.4926 33.3448C39.4925 32.7983 39.2885 32.2716 38.9203 31.8678C39.6515 31.5117 40.1566 30.7609 40.1566 29.8944C40.1565 28.6851 39.1725 27.7011 37.9631 27.7011ZM18.5408 27.5064H16.1698C15.5237 27.5064 15 28.0301 15 28.6762V41.5253C15 42.1714 15.5237 42.6951 16.1698 42.6951H18.5408C19.1869 42.6951 19.7106 42.1714 19.7106 41.5253V28.6762C19.7106 28.0301 19.1868 27.5064 18.5408 27.5064Z" fill="white"/>
</g>
<defs>
<clipPath id="clip0_764_812">
<rect width="30" height="30" fill="white" transform="translate(15 15)"/>
</clipPath>
</defs>
</svg>
