<svg width="64" height="64" viewBox="0 0 64 64" fill="none" xmlns="http://www.w3.org/2000/svg">
<rect width="64" height="64" rx="32" fill="#EBF2FF"/>
<g clip-path="url(#clip0_740_632)">
<path d="M24.871 32.6649H23.6299C23.4707 32.6649 23.315 32.7115 23.182 32.799C23.049 32.8866 22.9446 33.0111 22.8816 33.1573L19.4458 41.1575L27.6054 36.9901C26.6287 35.6385 25.6622 34.1478 24.871 32.6649ZM40.6572 33.1573C40.5942 33.0111 40.4898 32.8866 40.3568 32.7991C40.2239 32.7116 40.0682 32.6649 39.909 32.6649H38.668C37.1738 35.4647 34.9971 38.3581 33.6124 39.9499C32.6386 41.0669 30.8991 41.0656 29.9268 39.9499C29.8273 39.8357 29.3081 39.2345 28.5929 38.3102L27.1219 39.0618L32.6865 44.6157L43.2304 39.1495L40.6572 33.1573ZM18.442 43.4956L17.9982 44.5291C17.7684 45.064 18.1619 45.6613 18.7462 45.6613H30.6949C30.7696 45.6058 30.7705 45.6091 31.1716 45.4011L25.5989 39.8399L18.442 43.4956ZM45.5408 44.5291L43.8736 40.647L34.2013 45.6613H44.7927C45.3757 45.6613 45.7709 45.065 45.5408 44.5291ZM32.5835 25.3004C32.5835 24.8524 32.2182 24.4882 31.7695 24.4882C31.3206 24.4882 30.9555 24.8524 30.9555 25.3004C30.9555 25.7483 31.3206 26.1128 31.7695 26.1128C32.2181 26.1128 32.5835 25.7483 32.5835 25.3004Z" fill="#1D61E7"/>
<path d="M32.3851 38.8299C32.6592 38.5153 39.0964 31.0689 39.0964 25.9503C39.0964 15.3954 24.4453 15.2666 24.4453 25.9503C24.4453 31.0689 30.8826 38.5153 31.1567 38.8299C31.4812 39.2022 32.0612 39.2018 32.3851 38.8299ZM29.3289 25.3006C29.3289 23.9568 30.4244 22.8637 31.7709 22.8637C33.1172 22.8637 34.2126 23.9568 34.2126 25.3006C34.2126 26.6441 33.1172 27.7372 31.7709 27.7372C30.4244 27.7372 29.3289 26.6441 29.3289 25.3006Z" fill="#1D61E7"/>
</g>
<defs>
<clipPath id="clip0_740_632">
<rect width="27.6757" height="27.6757" fill="white" transform="translate(17.9316 17.9316)"/>
</clipPath>
</defs>
</svg>
