<svg width="64" height="64" viewBox="0 0 64 64" fill="none" xmlns="http://www.w3.org/2000/svg">
<rect width="64" height="64" rx="32" fill="#EBF2FF"/>
<g clip-path="url(#clip0_740_622)">
<path d="M43.0603 25.7478H36.1126C34.7031 25.7478 33.5649 26.8887 33.5649 28.2956V43.0595C33.5649 44.469 34.7056 45.6073 36.1126 45.6073H43.0603C44.4698 45.6073 45.6081 44.4665 45.6081 43.0595V28.2956C45.6081 26.8861 44.4672 25.7478 43.0603 25.7478ZM40.455 29.2216H38.718C38.2702 29.2216 37.9072 28.8586 37.9072 28.4108C37.9072 27.963 38.2702 27.6 38.718 27.6H40.455C40.9027 27.6 41.2658 27.963 41.2658 28.4108C41.2658 28.8586 40.9027 29.2216 40.455 29.2216ZM26.6171 40.5117H24.8225C24.3747 40.5117 24.0117 40.8748 24.0117 41.3226C24.0117 41.7703 24.3747 42.1334 24.8225 42.1334H31.9432V38.5442H26.6171V40.5117H26.6171Z" fill="#1D61E7"/>
<path d="M43.0595 24.1262C43.3369 24.1262 43.608 24.1541 43.8703 24.206V20.4794C43.8703 19.0746 42.7274 17.9316 41.3226 17.9316H20.4794C19.0746 17.9316 17.9316 19.0746 17.9316 20.4794V34.3749C17.9316 35.7797 19.0746 36.9226 20.4794 36.9226H31.9425V28.2956C31.9425 25.9966 33.8128 24.1262 36.1118 24.1262L43.0595 24.1262Z" fill="#1D61E7"/>
</g>
<defs>
<clipPath id="clip0_740_622">
<rect width="27.6757" height="27.6757" fill="white" transform="translate(17.9316 17.9316)"/>
</clipPath>
</defs>
</svg>
