<svg width="64" height="64" viewBox="0 0 64 64" fill="none" xmlns="http://www.w3.org/2000/svg">
<rect width="64" height="64" rx="32" fill="#EBF2FF"/>
<g clip-path="url(#clip0_740_602)">
<path d="M19.0273 42.3785H44.9733V44.1082H19.0273V42.3785ZM22.9192 27.6758C22.5752 27.6758 22.2452 27.8124 22.0019 28.0557C21.7586 28.299 21.6219 28.629 21.6219 28.9731V40.6487H26.8111V28.9731C26.8111 28.629 26.6744 28.299 26.4312 28.0557C26.1879 27.8124 25.8579 27.6758 25.5138 27.6758H22.9192ZM30.703 34.5947C30.359 34.5947 30.029 34.7314 29.7857 34.9747C29.5424 35.218 29.4057 35.5479 29.4057 35.892V40.6487H34.5949V35.892C34.5949 35.5479 34.4582 35.218 34.2149 34.9747C33.9717 34.7314 33.6417 34.5947 33.2976 34.5947H30.703ZM38.4868 37.1893C38.1427 37.1893 37.8128 37.326 37.5695 37.5693C37.3262 37.8125 37.1895 38.1425 37.1895 38.4866V40.6487H42.3787V38.4866C42.3787 38.1425 42.242 37.8125 41.9987 37.5693C41.7554 37.326 41.4255 37.1893 41.0814 37.1893H38.4868ZM29.6652 29.4747C29.9526 30.4313 30.4753 31.3007 31.1854 32.0032C31.8955 32.7057 32.7704 33.2191 33.73 33.4963C34.2934 33.6519 34.8753 33.7305 35.4598 33.7298C37.0654 33.7298 38.6053 33.092 39.7406 31.9566C40.876 30.8213 41.5138 29.2814 41.5138 27.6758C41.5138 27.4464 41.4227 27.2264 41.2605 27.0642C41.0983 26.902 40.8783 26.8109 40.649 26.8109H37.6219C37.2779 26.8109 36.9479 26.6742 36.7046 26.4309C36.4613 26.1876 36.3246 25.8577 36.3246 25.5136V22.4866C36.3246 22.2572 36.2335 22.0372 36.0713 21.875C35.9091 21.7128 35.6892 21.6217 35.4598 21.6217C34.5568 21.6199 33.6648 21.8202 32.8493 22.2078C32.0337 22.5953 31.3151 23.1605 30.7463 23.8617C30.1231 24.6388 29.699 25.5562 29.5106 26.5343C29.3222 27.5124 29.3752 28.5217 29.6652 29.4747Z" fill="#1D61E7"/>
<path d="M38.9192 25.0812H44.1084C44.3378 25.0812 44.5578 24.99 44.72 24.8278C44.8822 24.6656 44.9733 24.4457 44.9733 24.2163C44.9733 22.6107 44.3355 21.0708 43.2001 19.9354C42.0647 18.8001 40.5249 18.1622 38.9192 18.1622C38.6899 18.1622 38.4699 18.2534 38.3077 18.4155C38.1455 18.5777 38.0544 18.7977 38.0544 19.0271V23.7925C38.0544 24.692 38.4436 25.0812 38.9192 25.0812ZM19.0273 18.1622H31.1355V19.892H19.0273V18.1622ZM19.0273 21.6217H26.8111V23.3514H19.0273V21.6217Z" fill="#1D61E7"/>
</g>
<defs>
<clipPath id="clip0_740_602">
<rect width="27.6757" height="27.6757" fill="white" transform="translate(18.1641 17.2974)"/>
</clipPath>
</defs>
</svg>
