<svg width="64" height="64" viewBox="0 0 64 64" fill="none" xmlns="http://www.w3.org/2000/svg">
<rect width="64" height="64" rx="32" fill="#EBF2FF"/>
<g clip-path="url(#clip0_740_612)">
<path fill-rule="evenodd" clip-rule="evenodd" d="M31.7719 28.6528C31.448 28.6528 31.124 28.8107 30.9712 29.1271L26.0399 39.3174C25.7329 39.9514 26.3739 40.7276 27.0544 40.5458L31.4121 39.3834C31.648 39.3205 31.8964 39.3205 32.1317 39.3834L36.4893 40.5458C37.1699 40.7276 37.8102 39.9514 37.5039 39.3174L32.5726 29.1271C32.4197 28.8107 32.0958 28.6528 31.7719 28.6528Z" fill="#1D61E7"/>
<path d="M31.1405 22.9635C30.7242 22.966 30.3257 23.1324 30.0313 23.4268C29.7369 23.7212 29.5705 24.1197 29.568 24.536H21.5962C21.3345 23.8064 20.6338 23.278 19.8186 23.278C18.7839 23.278 17.9316 24.1303 17.9316 25.165C17.9316 26.1997 18.7839 27.052 19.8186 27.052C20.6332 27.052 21.3345 26.5236 21.5962 25.794H26.9036C23.9775 27.4149 21.9459 30.4491 21.7276 33.9709H21.7056C21.2893 33.9733 20.8908 34.1398 20.5964 34.4342C20.3021 34.7285 20.1356 35.1271 20.1331 35.5434V36.8013C20.1331 37.6624 20.8445 38.3738 21.7056 38.3738H22.9636C23.8247 38.3738 24.5361 37.6624 24.5361 36.8013V35.5434C24.5334 35.1316 24.3702 34.7371 24.0813 34.4437C23.7924 34.1503 23.4004 33.9811 22.9887 33.9721C23.258 30.1353 25.9783 26.9865 29.5932 26.0682C29.6597 26.4308 29.8507 26.7589 30.1331 26.9958C30.4156 27.2328 30.7718 27.3639 31.1405 27.3664H32.3985C33.1658 27.3664 33.815 26.8004 33.9458 26.0682C37.5606 26.9865 40.281 30.1353 40.5502 33.9721C40.1385 33.9811 39.7466 34.1503 39.4577 34.4437C39.1687 34.7371 39.0056 35.1316 39.0029 35.5434V36.8013C39.0029 37.6624 39.7143 38.3738 40.5754 38.3738H41.8334C42.6945 38.3738 43.4058 37.6624 43.4058 36.8013V35.5434C43.4058 34.6823 42.6945 33.9709 41.8334 33.9709H41.8113C41.5931 30.4491 39.5614 27.4149 36.6354 25.794H41.9428C42.2045 26.5236 42.9052 27.052 43.7203 27.052C44.755 27.052 45.6073 26.1997 45.6073 25.165C45.6073 24.1303 44.755 23.278 43.7203 23.278C42.9058 23.278 42.2045 23.8064 41.9428 24.536H33.971C33.971 23.6749 33.2596 22.9635 32.3985 22.9635H31.1405ZM31.1405 24.2215H32.3985C32.5796 24.2215 32.713 24.3548 32.713 24.536V25.794C32.713 25.9751 32.5796 26.1085 32.3985 26.1085H31.1405C31.0989 26.1097 31.0574 26.1024 31.0187 26.087C30.98 26.0716 30.9448 26.0485 30.9154 26.0191C30.8859 25.9896 30.8628 25.9545 30.8474 25.9157C30.8321 25.877 30.8248 25.8356 30.826 25.794V24.536C30.826 24.3548 30.9593 24.2215 31.1405 24.2215Z" fill="#1D61E7"/>
</g>
<defs>
<clipPath id="clip0_740_612">
<rect width="27.6757" height="27.6757" fill="white" transform="translate(17.9316 17.9316)"/>
</clipPath>
</defs>
</svg>
