<svg width="64" height="64" viewBox="0 0 64 64" fill="none" xmlns="http://www.w3.org/2000/svg">
<rect width="64" height="64" rx="32" fill="#EBF2FF"/>
<g clip-path="url(#clip0_740_642)">
<path d="M45.6073 26.0037V27.1569H17.9316V26.0037C17.9316 24.4745 18.5391 23.008 19.6204 21.9267C20.7017 20.8454 22.1682 20.2379 23.6974 20.2379H24.8506V19.0848C24.8506 18.779 24.9721 18.4856 25.1883 18.2694C25.4046 18.0531 25.6979 17.9316 26.0037 17.9316C26.3095 17.9316 26.6029 18.0531 26.8191 18.2694C27.0354 18.4856 27.1569 18.779 27.1569 19.0848V20.2379H36.3821V19.0848C36.3821 18.779 36.5036 18.4856 36.7198 18.2694C36.9361 18.0531 37.2294 17.9316 37.5352 17.9316C37.8411 17.9316 38.1344 18.0531 38.3506 18.2694C38.5669 18.4856 38.6884 18.779 38.6884 19.0848V20.2379H39.8416C40.5987 20.2379 41.3485 20.3871 42.048 20.6768C42.7475 20.9666 43.3832 21.3913 43.9186 21.9267C44.454 22.4621 44.8787 23.0977 45.1684 23.7972C45.4582 24.4968 45.6073 25.2465 45.6073 26.0037ZM45.6073 37.5352C45.6073 41.9864 41.9853 45.6073 37.5352 45.6073C33.0852 45.6073 29.4632 41.9864 29.4632 37.5352C29.4632 33.0841 33.0852 29.4632 37.5352 29.4632C41.9853 29.4632 45.6073 33.0841 45.6073 37.5352ZM39.8416 38.211L38.6884 37.0578V35.2289C38.6884 34.9231 38.5669 34.6298 38.3506 34.4135C38.1344 34.1973 37.8411 34.0758 37.5352 34.0758C37.2294 34.0758 36.9361 34.1973 36.7198 34.4135C36.5036 34.6298 36.3821 34.9231 36.3821 35.2289V37.5352C36.3821 37.8408 36.5032 38.1349 36.72 38.3505L38.211 39.8416C38.4285 40.0516 38.7198 40.1678 39.0221 40.1652C39.3245 40.1626 39.6137 40.0413 39.8275 39.8275C40.0413 39.6137 40.1626 39.3245 40.1652 39.0221C40.1678 38.7198 40.0516 38.4285 39.8416 38.211ZM27.1569 37.5352C27.156 35.9866 27.5025 34.4575 28.1709 33.0605C28.8393 31.6635 29.8124 30.4343 31.0188 29.4632H17.9316V39.8416C17.9316 40.5987 18.0808 41.3485 18.3705 42.048C18.6603 42.7475 19.085 43.3832 19.6204 43.9186C20.7017 44.9999 22.1682 45.6073 23.6974 45.6073H31.0188C29.8124 44.6362 28.8393 43.4069 28.1709 42.01C27.5025 40.613 27.156 39.0839 27.1569 37.5352Z" fill="#1D61E7"/>
</g>
<defs>
<clipPath id="clip0_740_642">
<rect width="27.6757" height="27.6757" fill="white" transform="translate(17.9316 17.9316)"/>
</clipPath>
</defs>
</svg>
