<svg width="70" height="70" viewBox="0 0 70 70" fill="none" xmlns="http://www.w3.org/2000/svg">
<path d="M67.0856 66.2517H62.3627C62.3627 66.1767 62.4376 66.1017 62.4376 66.0268C62.3627 61.154 58.4644 57.2557 53.5916 57.3307C50.0682 57.3307 46.9196 59.5047 45.5702 62.7282C43.2462 63.0281 41.0722 64.3026 39.7228 66.2517H32.3761C31.1766 64.0777 28.9276 62.8032 26.5287 62.8032H26.4537C25.1043 58.905 20.8312 56.8059 16.9329 58.2303C15.6585 58.6801 14.459 59.5047 13.5595 60.5542L12.1351 60.4043C8.61166 60.4043 5.46306 62.8032 4.56347 66.2517H2.9142C1.86467 66.2517 1.04004 67.0763 1.04004 68.1258C1.04004 69.1754 1.86467 70 2.9142 70H67.0856C68.1351 70 68.9597 69.1754 68.9597 68.1258C68.9597 67.0763 68.1351 66.2517 67.0856 66.2517ZM52.0923 27.8688C50.8178 26.5944 49.2435 25.6198 47.5193 25.0201C47.2944 19.0977 45.5702 13.3253 42.4216 8.22758C42.1967 7.70281 38.2984 2.45515 36.3493 0.506024C35.5996 -0.168675 34.4002 -0.168675 33.6505 0.506024C26.6036 7.62785 22.7803 15.9491 22.4805 25.0201C20.7562 25.6198 19.1819 26.5944 17.9075 27.8688C13.1846 32.2169 12.8098 39.5636 17.1578 44.3615C17.4577 44.7363 17.9075 44.9612 18.4323 44.9612H18.5072C18.957 44.9612 19.4818 44.8112 19.7817 44.4364L24.8794 39.7885C25.9289 42.4873 27.2034 45.1111 28.8526 47.51C30.352 49.759 34.1752 49.9839 35.2997 49.9839H35.3747C36.949 49.9839 39.6478 49.6841 40.9222 47.8849C42.6465 45.411 44.0708 42.6372 45.1204 39.7885L50.2181 44.4364C50.518 44.8112 51.0427 44.9612 51.4925 44.9612H51.5675C52.0922 44.9612 52.542 44.7363 52.8419 44.3615C57.19 39.5636 56.8151 32.2169 52.0923 27.8688ZM34.9999 28.9933C31.4765 28.9183 28.6277 26.0696 28.6277 22.5462C28.6277 19.0228 31.4765 16.174 34.9999 16.174C38.5233 16.174 41.372 19.0228 41.372 22.5462C41.372 26.0696 38.5233 28.9183 34.9999 28.9933Z" fill="black"/>
<path d="M33.1258 52.6832H36.8741V61.4542H33.1258V52.6832ZM39.273 51.2588H43.0214V59.2802H39.273V51.2588ZM26.9785 51.2588H30.7268V58.6055H26.9785V51.2588Z" fill="black"/>
</svg>
