<svg width="70" height="70" viewBox="0 0 70 70" fill="none" xmlns="http://www.w3.org/2000/svg">
<path d="M2.1875 63.4375H67.8125V67.8125H2.1875V63.4375ZM12.0312 26.25C11.161 26.25 10.3264 26.5957 9.71106 27.2111C9.0957 27.8264 8.75 28.661 8.75 29.5313V59.0625H21.875V29.5313C21.875 28.661 21.5293 27.8264 20.9139 27.2111C20.2986 26.5957 19.464 26.25 18.5938 26.25H12.0312ZM31.7188 43.75C30.8485 43.75 30.0139 44.0957 29.3986 44.7111C28.7832 45.3264 28.4375 46.161 28.4375 47.0313V59.0625H41.5625V47.0313C41.5625 46.161 41.2168 45.3264 40.6014 44.7111C39.9861 44.0957 39.1515 43.75 38.2812 43.75H31.7188ZM51.4062 50.3125C50.536 50.3125 49.7014 50.6582 49.0861 51.2736C48.4707 51.8889 48.125 52.7235 48.125 53.5938V59.0625H61.25V53.5938C61.25 52.7235 60.9043 51.8889 60.2889 51.2736C59.6736 50.6582 58.839 50.3125 57.9688 50.3125H51.4062ZM29.0938 30.8C29.8208 33.2197 31.1428 35.4185 32.9389 37.1954C34.7349 38.9723 36.9477 40.2707 39.375 40.9719C40.8 41.3655 42.2717 41.5642 43.75 41.5625C47.8111 41.5625 51.7059 39.9493 54.5776 37.0776C57.4492 34.2059 59.0625 30.3112 59.0625 26.25C59.0625 25.6699 58.832 25.1135 58.4218 24.7032C58.0116 24.293 57.4552 24.0625 56.875 24.0625H49.2188C48.3485 24.0625 47.5139 23.7168 46.8986 23.1015C46.2832 22.4861 45.9375 21.6515 45.9375 20.7813V13.125C45.9375 12.5449 45.707 11.9885 45.2968 11.5782C44.8866 11.168 44.3302 10.9375 43.75 10.9375C41.4661 10.933 39.2101 11.4395 37.1472 12.4198C35.0844 13.4001 33.267 14.8295 31.8281 16.6032C30.252 18.5687 29.1792 20.889 28.7027 23.3629C28.2262 25.8369 28.3604 28.3897 29.0938 30.8Z" fill="black"/>
<path d="M52.5 19.6875H65.625C66.2052 19.6875 66.7616 19.457 67.1718 19.0468C67.582 18.6366 67.8125 18.0802 67.8125 17.5C67.8125 13.4389 66.1992 9.54408 63.3276 6.67243C60.4559 3.80078 56.5611 2.1875 52.5 2.1875C51.9198 2.1875 51.3634 2.41797 50.9532 2.8282C50.543 3.23844 50.3125 3.79484 50.3125 4.375V16.4281C50.3125 18.7031 51.2969 19.6875 52.5 19.6875ZM2.1875 2.1875H32.8125V6.5625H2.1875V2.1875ZM2.1875 10.9375H21.875V15.3125H2.1875V10.9375Z" fill="black"/>
</svg>
