<svg width="70" height="70" viewBox="0 0 70 70" fill="none" xmlns="http://www.w3.org/2000/svg">
<g clip-path="url(#clip0_697_826)">
<path d="M55.5174 51.8962C56.184 51.8962 56.7243 51.3559 56.7243 50.6893C56.7243 50.0228 56.184 49.4824 55.5174 49.4824C54.8509 49.4824 54.3105 50.0228 54.3105 50.6893C54.3105 51.3559 54.8509 51.8962 55.5174 51.8962Z" fill="black"/>
<path d="M55.0178 13.2762L50.6899 8.94824L44.2499 15.3882C46.1367 16.2895 47.8848 17.4564 49.4408 18.8532L55.0178 13.2762ZM37.3151 19.3203C37.3489 19.3203 37.3803 19.3107 37.414 19.3107C40.7415 19.3107 43.4485 22.0177 43.4485 25.3451C43.4485 28.6725 40.7415 31.3796 37.414 31.3796H31.3796V35.0003C31.3796 35.6665 31.9215 36.2072 32.5865 36.2072H42.2416C44.2378 36.2072 45.8623 37.8317 45.8623 39.8279C45.8623 41.8241 44.2378 43.4486 42.2416 43.4486H30.1727C29.8619 43.4625 29.5685 43.5957 29.3535 43.8205C29.1385 44.0453 29.0186 44.3444 29.0186 44.6555C29.0186 44.9665 29.1385 45.2656 29.3535 45.4904C29.5685 45.7152 29.8619 45.8485 30.1727 45.8624H32.5865C34.5827 45.8624 36.2072 47.4868 36.2072 49.4831V55.5175H41.0347C41.2797 55.5175 41.5187 55.5429 41.7492 55.59C43.1275 52.2022 45.4954 49.8777 47.8006 47.6293C51.1485 44.3646 54.3106 41.2798 54.3106 35.0003C54.3106 25.1448 46.7506 16.8872 37.1292 15.8155C37.3151 16.5641 37.4107 17.3324 37.414 18.1038C37.414 18.5141 37.367 18.9172 37.3151 19.3203ZM49.6954 49.1524C49.5589 49.6537 49.4875 50.1704 49.483 50.6899C49.483 54.0174 52.1901 56.7244 55.5175 56.7244C58.8449 56.7244 61.552 54.0174 61.552 50.6899C61.552 47.3625 58.8449 44.6555 55.5175 44.6555C54.809 44.6555 54.1259 44.7967 53.4694 45.0356C52.3325 46.5539 51.0121 47.867 49.6954 49.1524ZM59.1382 50.6899C59.1382 52.6862 57.5137 54.3106 55.5175 54.3106C53.5213 54.3106 51.8968 52.6862 51.8968 50.6899C51.8968 48.6937 53.5213 47.0693 55.5175 47.0693C57.5137 47.0693 59.1382 48.6937 59.1382 50.6899Z" fill="black"/>
<path d="M22.1996 47.629C24.5048 49.8774 26.8728 52.2019 28.251 55.5897C28.4815 55.5426 28.7205 55.5172 28.9655 55.5172H33.7931V49.4828C33.7931 48.8166 33.2512 48.2759 32.5862 48.2759H30.1724C28.1762 48.2759 26.5517 46.6514 26.5517 44.6552C26.5517 42.659 28.1762 41.0345 30.1724 41.0345H42.2414C42.5521 41.0206 42.8455 40.8874 43.0605 40.6625C43.2755 40.4377 43.3955 40.1387 43.3955 39.8276C43.3955 39.5165 43.2755 39.2175 43.0605 38.9926C42.8455 38.7678 42.5521 38.6346 42.2414 38.6207H32.5862C30.59 38.6207 28.9655 36.9962 28.9655 35V31.3793H16.0614C15.8246 32.572 15.7001 33.7842 15.6897 35C15.6897 41.2795 18.8517 44.3643 22.1996 47.629ZM54.606 25.7564L61.052 19.3104L56.7241 14.9824L51.1446 20.5619C52.5402 22.1195 53.7058 23.8687 54.606 25.7564ZM67.8541 12.5083C68.5367 11.8295 69.0778 11.0221 69.4462 10.1327C69.8145 9.24332 70.0027 8.28971 70 7.32709C69.9974 5.38462 69.2246 3.52243 67.8511 2.14889C66.4776 0.775356 64.6154 0.0025791 62.6729 2.4471e-05C61.7103 -0.00247083 60.7568 0.185892 59.8675 0.554219C58.9781 0.922547 58.1707 1.46353 57.4917 2.14589L56.0169 3.62071L66.3793 13.9831L67.8541 12.5083ZM52.389 7.24623L54.3031 5.3333L64.6631 15.6933L62.7502 17.6074L52.389 7.24623ZM35 70C35.8571 69.9995 36.6994 69.7769 37.4448 69.3538C38.1902 68.9308 38.8132 68.3218 39.2531 67.5862H30.7469C31.6279 69.0514 33.2174 70 35 70ZM41.0345 62.7586H28.9655C28.6548 62.7725 28.3613 62.9058 28.1464 63.1306C27.9314 63.3554 27.8114 63.6545 27.8114 63.9655C27.8114 64.2766 27.9314 64.5757 28.1464 64.8005C28.3613 65.0253 28.6548 65.1585 28.9655 65.1724H41.0345C41.3452 65.1585 41.6386 65.0253 41.8536 64.8005C42.0686 64.5757 42.1886 64.2766 42.1886 63.9655C42.1886 63.6545 42.0686 63.3554 41.8536 63.1306C41.6386 62.9058 41.3452 62.7725 41.0345 62.7586ZM12.5686 59.1379L16.8965 63.4659L25.3195 55.0429C24.3033 53.2278 22.9262 51.7385 21.4405 50.2673L12.5686 59.1379ZM65.567 46.5621C64.8079 44.7409 65.2062 42.7109 66.5652 41.3507L66.6158 41.3L64.9069 39.591L64.8562 39.6417C64.1928 40.3069 63.346 40.7587 62.4241 40.9393C61.5023 41.12 60.5475 41.0211 59.6822 40.6555C57.8707 39.9073 56.7241 38.1935 56.7241 36.2733V36.2069H56.6855C56.5443 38.5978 55.9831 40.5626 55.166 42.2583C55.2843 42.2535 55.3989 42.2414 55.5172 42.2414C60.1758 42.2414 63.9655 46.0322 63.9655 50.6897C63.9655 55.3471 60.1758 59.1379 55.5172 59.1379C51.2146 59.1379 47.6603 55.9022 47.1414 51.7385C45.7715 53.235 44.5948 54.8547 43.8441 56.8822C44.3438 57.5038 44.6552 58.281 44.6552 59.1379C44.6552 59.4928 44.5876 59.8283 44.4922 60.1529L46.1276 61.7883L46.1783 61.7376C46.8416 61.0725 47.6884 60.6207 48.6102 60.4398C49.532 60.259 50.4868 60.3575 51.3522 60.7226C53.1638 61.4733 54.3103 63.1859 54.3103 65.106V65.1724H56.7241V65.106C56.7241 63.1859 57.8707 61.4721 59.6448 60.7395C61.4636 59.9767 63.4948 60.3762 64.8574 61.7376L64.9081 61.7883L66.6171 60.0793L66.5664 60.0286C65.9022 59.3649 65.451 58.5183 65.2704 57.5969C65.0898 56.6755 65.188 55.7212 65.5526 54.8559C66.2996 53.0431 68.0134 51.8966 69.9336 51.8966H70V49.4828H69.9336C68.998 49.4848 68.0829 49.208 67.3052 48.6879C66.5275 48.1677 65.9224 47.4276 65.567 46.5621ZM41.0345 57.931H28.9655C28.6548 57.9449 28.3613 58.0782 28.1464 58.303C27.9314 58.5278 27.8114 58.8269 27.8114 59.1379C27.8114 59.449 27.9314 59.7481 28.1464 59.9729C28.3613 60.1977 28.6548 60.3309 28.9655 60.3448H41.0345C41.3452 60.3309 41.6386 60.1977 41.8536 59.9729C42.0686 59.7481 42.1886 59.449 42.1886 59.1379C42.1886 58.8269 42.0686 58.5278 41.8536 58.303C41.6386 58.0782 41.3452 57.9449 41.0345 57.931ZM2.21224 63.2643L6.73569 67.7878L14.7302 64.7126L5.28741 55.2698L2.21224 63.2643ZM4.82758 28.9655H37.4138C39.41 28.9655 41.0345 27.3411 41.0345 25.3448C41.0345 23.3486 39.41 21.7242 37.4138 21.7242C35.4176 21.7242 33.7931 23.3486 33.7931 25.3448H31.3793C31.3793 22.9842 32.7552 20.9566 34.7345 19.9657C34.8962 19.3598 35 18.7383 35 18.1035C35 14.1098 31.7522 10.8621 27.7586 10.8621C24.109 10.8621 21.0905 13.5776 20.5957 17.0921C22.6317 17.6593 24.1379 19.5095 24.1379 21.7242H21.7241C21.7241 20.393 20.6415 19.3104 19.3103 19.3104C17.9791 19.3104 16.8965 20.393 16.8965 21.7242H14.4828C14.4828 19.4588 16.0565 17.5676 18.1638 17.0486C18.3308 15.5518 18.8455 14.1147 19.6667 12.8522C20.4879 11.5896 21.593 10.5366 22.8936 9.77709C22.0601 8.27728 20.8408 7.02755 19.362 6.15732C17.8832 5.28709 16.1986 4.82801 14.4828 4.82761C9.15914 4.82761 4.82758 9.15916 4.82758 14.4828C4.82758 15.3083 4.93138 16.123 5.13655 16.9123C8.98534 17.0752 12.069 20.2493 12.069 24.1379H9.65517C9.65517 21.4755 7.49 19.3104 4.82758 19.3104C2.16517 19.3104 0 21.4755 0 24.1379C0 26.8004 2.16517 28.9655 4.82758 28.9655ZM10.8621 57.4314L19.7171 48.5764C18.2809 47.1595 16.8748 45.675 15.7428 43.8948L6.53414 53.1035L10.8621 57.4314ZM0.0543104 68.874C0.0188814 68.969 0.000495928 69.0695 0 69.1709C0 69.7309 0.604655 70.1472 1.12724 69.9445L4.27 68.7352L1.26362 65.7288L0.0543104 68.874Z" fill="black"/>
</g>
<defs>
<clipPath id="clip0_697_826">
<rect width="70" height="70" fill="white"/>
</clipPath>
</defs>
</svg>
